<svg width="52" height="52" viewBox="0 0 52 52" fill="none" xmlns="http://www.w3.org/2000/svg">
<path d="M26 0C11.6391 0 0 11.6391 0 26C0 40.3609 11.6391 52 26 52C40.3609 52 52 40.3609 52 26C52 11.6391 40.3609 0 26 0ZM42.2297 42.2195C40.1172 44.332 37.6695 45.9875 34.9375 47.1352C32.1141 48.3336 29.1078 48.9328 26 48.9328C22.9023 48.9328 19.8961 48.3234 17.0625 47.1352C14.3305 45.9773 11.8727 44.3219 9.77031 42.2195C7.65781 40.107 6.00234 37.6594 4.85469 34.9273C3.65625 32.1039 3.04688 29.0977 3.04688 26C3.04688 22.9023 3.65625 19.8961 4.84453 17.0625C6.00234 14.3305 7.65781 11.8727 9.76016 9.77031C11.8828 7.65781 14.3305 6.00234 17.0625 4.84453C19.8961 3.65625 22.9023 3.04688 26 3.04688C29.0977 3.04688 32.1039 3.65625 34.9375 4.84453C37.6695 6.00234 40.1273 7.65781 42.2297 9.76016C44.3422 11.8727 45.9977 14.3203 47.1453 17.0523C48.3438 19.8758 48.943 22.882 48.943 25.9898C48.943 29.0875 48.3336 32.0938 47.1453 34.9273C45.9875 37.6594 44.332 40.1172 42.2297 42.2195Z" fill="black"/>
<path d="M29.4328 17.1335C30.4789 17.1335 31.596 17.4585 31.596 17.4585L32.2664 13.4772C32.2664 13.4772 30.8445 12.9897 27.4523 12.9897C25.3703 12.9897 24.1617 13.7819 23.2781 14.9499C22.4453 16.0569 22.4148 17.8343 22.4148 18.9819V21.5921H19.7234V25.4819H22.4148V38.9897H27.4523V25.4819H31.4437L31.7382 21.5921H27.4523V18.5554C27.4523 17.5093 28.3867 17.1335 29.4328 17.1335Z" fill="black"/>
</svg>
