<svg width="300" height="300" viewBox="0 0 364 356" fill="none" xmlns="http://www.w3.org/2000/svg">
<rect x="0.90271" width="363.097" height="355.395" rx="17" fill="#F5F5F5"/>
<path d="M150.118 45.1441V62.1121H145.99V55.0321H139.558V62.1121H135.454V45.1441H139.558V51.7201H145.99V45.1441H150.118ZM159.203 48.5521C160.531 48.5521 161.715 48.8321 162.755 49.3921C163.811 49.9361 164.635 50.7281 165.227 51.7681C165.835 52.8081 166.139 54.0241 166.139 55.4161C166.139 56.8081 165.835 58.0241 165.227 59.0641C164.635 60.1041 163.811 60.9041 162.755 61.4641C161.715 62.0081 160.531 62.2801 159.203 62.2801C157.875 62.2801 156.683 62.0081 155.627 61.4641C154.571 60.9041 153.739 60.1041 153.131 59.0641C152.539 58.0241 152.243 56.8081 152.243 55.4161C152.243 54.0241 152.539 52.8081 153.131 51.7681C153.739 50.7281 154.571 49.9361 155.627 49.3921C156.683 48.8321 157.875 48.5521 159.203 48.5521ZM159.203 52.1041C158.419 52.1041 157.755 52.3921 157.211 52.9681C156.683 53.5281 156.419 54.3441 156.419 55.4161C156.419 56.4881 156.683 57.3041 157.211 57.8641C157.755 58.4241 158.419 58.7041 159.203 58.7041C159.987 58.7041 160.643 58.4241 161.171 57.8641C161.699 57.3041 161.963 56.4881 161.963 55.4161C161.963 54.3441 161.699 53.5281 161.171 52.9681C160.643 52.3921 159.987 52.1041 159.203 52.1041ZM176.763 48.5761C178.299 48.5761 179.515 49.0881 180.411 50.1121C181.323 51.1361 181.779 52.5441 181.779 54.3361V62.1121H177.675V54.8161C177.675 53.9201 177.435 53.2241 176.955 52.7281C176.491 52.2161 175.867 51.9601 175.083 51.9601C174.251 51.9601 173.587 52.2241 173.091 52.7521C172.611 53.2801 172.371 54.0321 172.371 55.0081V62.1121H168.267V48.7201H172.371V51.1681C172.755 50.3681 173.323 49.7361 174.075 49.2721C174.843 48.8081 175.739 48.5761 176.763 48.5761ZM197.206 55.0561C197.206 55.3921 197.166 55.7601 197.086 56.1601H187.798C187.846 57.1681 188.102 57.8961 188.566 58.3441C189.03 58.7761 189.622 58.9921 190.342 58.9921C190.95 58.9921 191.454 58.8401 191.854 58.5361C192.254 58.2321 192.518 57.8401 192.646 57.3601H196.99C196.814 58.3041 196.43 59.1521 195.838 59.9041C195.246 60.6401 194.494 61.2241 193.582 61.6561C192.67 62.0721 191.654 62.2801 190.534 62.2801C189.222 62.2801 188.054 62.0081 187.03 61.4641C186.022 60.9041 185.23 60.1041 184.654 59.0641C184.078 58.0241 183.79 56.8081 183.79 55.4161C183.79 54.0081 184.07 52.7921 184.63 51.7681C185.206 50.7281 186.006 49.9361 187.03 49.3921C188.054 48.8321 189.222 48.5521 190.534 48.5521C191.862 48.5521 193.03 48.8241 194.038 49.3681C195.046 49.9121 195.822 50.6801 196.366 51.6721C196.926 52.6481 197.206 53.7761 197.206 55.0561ZM193.054 54.4321C193.07 53.5521 192.83 52.8961 192.334 52.4641C191.854 52.0161 191.254 51.7921 190.534 51.7921C189.782 51.7921 189.158 52.0161 188.662 52.4641C188.166 52.9121 187.886 53.5681 187.822 54.4321H193.054ZM204.217 48.5521C205.913 48.5521 207.265 48.9761 208.273 49.8241C209.297 50.6721 209.937 51.7921 210.193 53.1841H206.353C206.241 52.6401 205.985 52.2161 205.585 51.9121C205.201 51.5921 204.713 51.4321 204.121 51.4321C203.657 51.4321 203.305 51.5361 203.065 51.7441C202.825 51.9361 202.705 52.2161 202.705 52.5841C202.705 53.0001 202.921 53.3121 203.353 53.5201C203.801 53.7281 204.497 53.9361 205.441 54.1441C206.465 54.3841 207.305 54.6321 207.961 54.8881C208.617 55.1281 209.185 55.5281 209.665 56.0881C210.145 56.6481 210.385 57.4001 210.385 58.3441C210.385 59.1121 210.177 59.7921 209.761 60.3841C209.345 60.9761 208.745 61.4401 207.961 61.7761C207.177 62.1121 206.249 62.2801 205.177 62.2801C203.369 62.2801 201.921 61.8801 200.833 61.0801C199.745 60.2801 199.081 59.1361 198.841 57.6481H202.801C202.865 58.2241 203.105 58.6641 203.521 58.9681C203.953 59.2721 204.505 59.4241 205.177 59.4241C205.641 59.4241 205.993 59.3201 206.233 59.1121C206.473 58.8881 206.593 58.6001 206.593 58.2481C206.593 57.7841 206.369 57.4561 205.921 57.2641C205.489 57.0561 204.777 56.8401 203.785 56.6161C202.793 56.4081 201.977 56.1841 201.337 55.9441C200.697 55.7041 200.145 55.3201 199.681 54.7921C199.217 54.2481 198.985 53.5121 198.985 52.5841C198.985 51.3841 199.441 50.4161 200.353 49.6801C201.265 48.9281 202.553 48.5521 204.217 48.5521ZM220.242 58.5841V62.1121H218.394C216.826 62.1121 215.602 61.7281 214.722 60.9601C213.858 60.1761 213.426 58.8881 213.426 57.0961V52.1761H211.626V48.7201H213.426V45.4321H217.53V48.7201H220.218V52.1761H217.53V57.1681C217.53 57.6961 217.634 58.0641 217.842 58.2721C218.066 58.4801 218.434 58.5841 218.946 58.5841H220.242Z" fill="#333333"/>
<path d="M91.6431 292.398L88.7791 303.678H87.0031L84.3951 294.462L81.7871 303.678H80.0111L77.1311 292.398H78.7471L80.9071 301.982L83.5791 292.398H85.1951L87.8671 301.95L90.0431 292.398H91.6431ZM101.429 298.798C101.429 299.108 101.408 299.374 101.365 299.598H94.3412C94.3732 300.601 94.6558 301.353 95.1892 301.854C95.7332 302.356 96.3945 302.606 97.1732 302.606C97.8772 302.606 98.4638 302.43 98.9332 302.078C99.4132 301.716 99.7065 301.236 99.8132 300.638H101.365C101.259 301.246 101.019 301.79 100.645 302.27C100.283 302.75 99.8078 303.124 99.2212 303.39C98.6345 303.657 97.9732 303.79 97.2372 303.79C96.3945 303.79 95.6478 303.609 94.9972 303.246C94.3465 302.884 93.8345 302.366 93.4612 301.694C93.0985 301.012 92.9172 300.212 92.9172 299.294C92.9172 298.377 93.0985 297.577 93.4612 296.894C93.8345 296.212 94.3465 295.689 94.9972 295.326C95.6478 294.964 96.3945 294.782 97.2372 294.782C98.0905 294.782 98.8318 294.964 99.4612 295.326C100.101 295.689 100.587 296.174 100.917 296.782C101.259 297.39 101.429 298.062 101.429 298.798ZM99.9572 298.894C99.9892 298.244 99.8825 297.7 99.6372 297.262C99.3918 296.825 99.0558 296.5 98.6292 296.286C98.2025 296.073 97.7385 295.966 97.2372 295.966C96.4372 295.966 95.7652 296.217 95.2212 296.718C94.6772 297.209 94.3838 297.934 94.3412 298.894H99.9572ZM110.887 294.782C111.74 294.782 112.46 294.996 113.047 295.422C113.644 295.849 114.06 296.42 114.295 297.134V294.894H115.751V303.678H114.295V301.438C114.06 302.153 113.644 302.724 113.047 303.15C112.46 303.577 111.74 303.79 110.887 303.79C110.108 303.79 109.415 303.609 108.807 303.246C108.199 302.884 107.719 302.366 107.367 301.694C107.025 301.012 106.855 300.212 106.855 299.294C106.855 298.377 107.025 297.577 107.367 296.894C107.719 296.212 108.199 295.689 108.807 295.326C109.415 294.964 110.108 294.782 110.887 294.782ZM111.303 296.078C110.407 296.078 109.687 296.366 109.143 296.942C108.609 297.508 108.343 298.292 108.343 299.294C108.343 300.297 108.609 301.086 109.143 301.662C109.687 302.228 110.407 302.51 111.303 302.51C111.879 302.51 112.391 302.377 112.839 302.11C113.297 301.844 113.655 301.47 113.911 300.99C114.167 300.5 114.295 299.934 114.295 299.294C114.295 298.654 114.167 298.089 113.911 297.598C113.655 297.108 113.297 296.734 112.839 296.478C112.391 296.212 111.879 296.078 111.303 296.078ZM119.524 296.67C119.812 296.062 120.233 295.593 120.788 295.262C121.343 294.921 122.004 294.75 122.772 294.75V296.334H122.324C121.503 296.334 120.831 296.548 120.308 296.974C119.785 297.39 119.524 298.084 119.524 299.054V303.678H118.068V294.894H119.524V296.67ZM132.289 298.798C132.289 299.108 132.267 299.374 132.225 299.598H125.201C125.233 300.601 125.515 301.353 126.049 301.854C126.593 302.356 127.254 302.606 128.033 302.606C128.737 302.606 129.323 302.43 129.793 302.078C130.273 301.716 130.566 301.236 130.673 300.638H132.225C132.118 301.246 131.878 301.79 131.505 302.27C131.142 302.75 130.667 303.124 130.081 303.39C129.494 303.657 128.833 303.79 128.097 303.79C127.254 303.79 126.507 303.609 125.857 303.246C125.206 302.884 124.694 302.366 124.321 301.694C123.958 301.012 123.777 300.212 123.777 299.294C123.777 298.377 123.958 297.577 124.321 296.894C124.694 296.212 125.206 295.689 125.857 295.326C126.507 294.964 127.254 294.782 128.097 294.782C128.95 294.782 129.691 294.964 130.321 295.326C130.961 295.689 131.446 296.174 131.777 296.782C132.118 297.39 132.289 298.062 132.289 298.798ZM130.817 298.894C130.849 298.244 130.742 297.7 130.497 297.262C130.251 296.825 129.915 296.5 129.489 296.286C129.062 296.073 128.598 295.966 128.097 295.966C127.297 295.966 126.625 296.217 126.081 296.718C125.537 297.209 125.243 297.934 125.201 298.894H130.817ZM141.746 294.782C142.599 294.782 143.319 294.996 143.906 295.422C144.503 295.849 144.919 296.42 145.154 297.134V294.894H146.61V303.678H145.154V301.438C144.919 302.153 144.503 302.724 143.906 303.15C143.319 303.577 142.599 303.79 141.746 303.79C140.967 303.79 140.274 303.609 139.666 303.246C139.058 302.884 138.578 302.366 138.226 301.694C137.885 301.012 137.714 300.212 137.714 299.294C137.714 298.377 137.885 297.577 138.226 296.894C138.578 296.212 139.058 295.689 139.666 295.326C140.274 294.964 140.967 294.782 141.746 294.782ZM142.162 296.078C141.266 296.078 140.546 296.366 140.002 296.942C139.469 297.508 139.202 298.292 139.202 299.294C139.202 300.297 139.469 301.086 140.002 301.662C140.546 302.228 141.266 302.51 142.162 302.51C142.738 302.51 143.25 302.377 143.698 302.11C144.157 301.844 144.514 301.47 144.77 300.99C145.026 300.5 145.154 299.934 145.154 299.294C145.154 298.654 145.026 298.089 144.77 297.598C144.514 297.108 144.157 296.734 143.698 296.478C143.25 296.212 142.738 296.078 142.162 296.078ZM156.48 294.782C157.334 294.782 158.054 294.996 158.64 295.422C159.238 295.849 159.654 296.42 159.888 297.134V291.838H161.344V303.678H159.888V301.438C159.654 302.153 159.238 302.724 158.64 303.15C158.054 303.577 157.334 303.79 156.48 303.79C155.702 303.79 155.008 303.609 154.4 303.246C153.792 302.884 153.312 302.366 152.96 301.694C152.619 301.012 152.448 300.212 152.448 299.294C152.448 298.377 152.619 297.577 152.96 296.894C153.312 296.212 153.792 295.689 154.4 295.326C155.008 294.964 155.702 294.782 156.48 294.782ZM156.896 296.078C156 296.078 155.28 296.366 154.736 296.942C154.203 297.508 153.936 298.292 153.936 299.294C153.936 300.297 154.203 301.086 154.736 301.662C155.28 302.228 156 302.51 156.896 302.51C157.472 302.51 157.984 302.377 158.432 302.11C158.891 301.844 159.248 301.47 159.504 300.99C159.76 300.5 159.888 299.934 159.888 299.294C159.888 298.654 159.76 298.089 159.504 297.598C159.248 297.108 158.891 296.734 158.432 296.478C157.984 296.212 157.472 296.078 156.896 296.078ZM171.742 298.798C171.742 299.108 171.72 299.374 171.678 299.598H164.654C164.686 300.601 164.968 301.353 165.502 301.854C166.046 302.356 166.707 302.606 167.486 302.606C168.19 302.606 168.776 302.43 169.246 302.078C169.726 301.716 170.019 301.236 170.126 300.638H171.678C171.571 301.246 171.331 301.79 170.958 302.27C170.595 302.75 170.12 303.124 169.534 303.39C168.947 303.657 168.286 303.79 167.55 303.79C166.707 303.79 165.96 303.609 165.31 303.246C164.659 302.884 164.147 302.366 163.774 301.694C163.411 301.012 163.23 300.212 163.23 299.294C163.23 298.377 163.411 297.577 163.774 296.894C164.147 296.212 164.659 295.689 165.31 295.326C165.96 294.964 166.707 294.782 167.55 294.782C168.403 294.782 169.144 294.964 169.774 295.326C170.414 295.689 170.899 296.174 171.23 296.782C171.571 297.39 171.742 298.062 171.742 298.798ZM170.27 298.894C170.302 298.244 170.195 297.7 169.95 297.262C169.704 296.825 169.368 296.5 168.942 296.286C168.515 296.073 168.051 295.966 167.55 295.966C166.75 295.966 166.078 296.217 165.534 296.718C164.99 297.209 164.696 297.934 164.654 298.894H170.27ZM178.494 294.782C179.273 294.782 179.966 294.964 180.574 295.326C181.182 295.689 181.657 296.212 181.998 296.894C182.35 297.577 182.526 298.377 182.526 299.294C182.526 300.212 182.35 301.012 181.998 301.694C181.657 302.366 181.182 302.884 180.574 303.246C179.966 303.609 179.273 303.79 178.494 303.79C177.641 303.79 176.915 303.577 176.318 303.15C175.731 302.713 175.326 302.142 175.102 301.438V307.838H173.646V294.894H175.102V297.134C175.326 296.43 175.731 295.865 176.318 295.438C176.915 295.001 177.641 294.782 178.494 294.782ZM178.078 296.078C177.513 296.078 177.001 296.212 176.542 296.478C176.083 296.734 175.726 297.108 175.47 297.598C175.214 298.089 175.086 298.654 175.086 299.294C175.086 299.934 175.214 300.5 175.47 300.99C175.726 301.47 176.083 301.844 176.542 302.11C177.001 302.377 177.513 302.51 178.078 302.51C178.985 302.51 179.705 302.228 180.238 301.662C180.782 301.086 181.054 300.297 181.054 299.294C181.054 298.292 180.782 297.508 180.238 296.942C179.705 296.366 178.985 296.078 178.078 296.078ZM192.507 298.798C192.507 299.108 192.486 299.374 192.443 299.598H185.419C185.451 300.601 185.734 301.353 186.267 301.854C186.811 302.356 187.473 302.606 188.251 302.606C188.955 302.606 189.542 302.43 190.011 302.078C190.491 301.716 190.785 301.236 190.891 300.638H192.443C192.337 301.246 192.097 301.79 191.723 302.27C191.361 302.75 190.886 303.124 190.299 303.39C189.713 303.657 189.051 303.79 188.315 303.79C187.473 303.79 186.726 303.609 186.075 303.246C185.425 302.884 184.913 302.366 184.539 301.694C184.177 301.012 183.995 300.212 183.995 299.294C183.995 298.377 184.177 297.577 184.539 296.894C184.913 296.212 185.425 295.689 186.075 295.326C186.726 294.964 187.473 294.782 188.315 294.782C189.169 294.782 189.91 294.964 190.539 295.326C191.179 295.689 191.665 296.174 191.995 296.782C192.337 297.39 192.507 298.062 192.507 298.798ZM191.035 298.894C191.067 298.244 190.961 297.7 190.715 297.262C190.47 296.825 190.134 296.5 189.707 296.286C189.281 296.073 188.817 295.966 188.315 295.966C187.515 295.966 186.843 296.217 186.299 296.718C185.755 297.209 185.462 297.934 185.419 298.894H191.035ZM199.036 294.75C200.06 294.75 200.886 295.081 201.516 295.742C202.145 296.393 202.46 297.337 202.46 298.574V303.678H201.004V298.702C201.004 297.828 200.78 297.156 200.332 296.686C199.884 296.217 199.276 295.982 198.508 295.982C197.708 295.982 197.068 296.244 196.588 296.766C196.108 297.278 195.868 298.03 195.868 299.022V303.678H194.412V294.894H195.868V296.974C196.092 296.26 196.486 295.71 197.052 295.326C197.628 294.942 198.289 294.75 199.036 294.75ZM208.293 294.782C209.146 294.782 209.866 294.996 210.453 295.422C211.05 295.849 211.466 296.42 211.701 297.134V291.838H213.157V303.678H211.701V301.438C211.466 302.153 211.05 302.724 210.453 303.15C209.866 303.577 209.146 303.79 208.293 303.79C207.514 303.79 206.821 303.609 206.213 303.246C205.605 302.884 205.125 302.366 204.773 301.694C204.432 301.012 204.261 300.212 204.261 299.294C204.261 298.377 204.432 297.577 204.773 296.894C205.125 296.212 205.605 295.689 206.213 295.326C206.821 294.964 207.514 294.782 208.293 294.782ZM208.709 296.078C207.813 296.078 207.093 296.366 206.549 296.942C206.016 297.508 205.749 298.292 205.749 299.294C205.749 300.297 206.016 301.086 206.549 301.662C207.093 302.228 207.813 302.51 208.709 302.51C209.285 302.51 209.797 302.377 210.245 302.11C210.704 301.844 211.061 301.47 211.317 300.99C211.573 300.5 211.701 299.934 211.701 299.294C211.701 298.654 211.573 298.089 211.317 297.598C211.061 297.108 210.704 296.734 210.245 296.478C209.797 296.212 209.285 296.078 208.709 296.078ZM219.074 294.782C219.928 294.782 220.648 294.996 221.234 295.422C221.832 295.849 222.248 296.42 222.482 297.134V294.894H223.938V303.678H222.482V301.438C222.248 302.153 221.832 302.724 221.234 303.15C220.648 303.577 219.928 303.79 219.074 303.79C218.296 303.79 217.602 303.609 216.994 303.246C216.386 302.884 215.906 302.366 215.554 301.694C215.213 301.012 215.042 300.212 215.042 299.294C215.042 298.377 215.213 297.577 215.554 296.894C215.906 296.212 216.386 295.689 216.994 295.326C217.602 294.964 218.296 294.782 219.074 294.782ZM219.49 296.078C218.594 296.078 217.874 296.366 217.33 296.942C216.797 297.508 216.53 298.292 216.53 299.294C216.53 300.297 216.797 301.086 217.33 301.662C217.874 302.228 218.594 302.51 219.49 302.51C220.066 302.51 220.578 302.377 221.026 302.11C221.485 301.844 221.842 301.47 222.098 300.99C222.354 300.5 222.482 299.934 222.482 299.294C222.482 298.654 222.354 298.089 222.098 297.598C221.842 297.108 221.485 296.734 221.026 296.478C220.578 296.212 220.066 296.078 219.49 296.078ZM231.103 294.782C231.882 294.782 232.575 294.964 233.183 295.326C233.791 295.689 234.266 296.212 234.607 296.894C234.959 297.577 235.135 298.377 235.135 299.294C235.135 300.212 234.959 301.012 234.607 301.694C234.266 302.366 233.791 302.884 233.183 303.246C232.575 303.609 231.882 303.79 231.103 303.79C230.25 303.79 229.525 303.577 228.927 303.15C228.341 302.713 227.935 302.142 227.711 301.438V303.678H226.255V291.838H227.711V297.134C227.935 296.43 228.341 295.865 228.927 295.438C229.525 295.001 230.25 294.782 231.103 294.782ZM230.687 296.078C230.122 296.078 229.61 296.212 229.151 296.478C228.693 296.734 228.335 297.108 228.079 297.598C227.823 298.089 227.695 298.654 227.695 299.294C227.695 299.934 227.823 300.5 228.079 300.99C228.335 301.47 228.693 301.844 229.151 302.11C229.61 302.377 230.122 302.51 230.687 302.51C231.594 302.51 232.314 302.228 232.847 301.662C233.391 301.086 233.663 300.297 233.663 299.294C233.663 298.292 233.391 297.508 232.847 296.942C232.314 296.366 231.594 296.078 230.687 296.078ZM238.493 291.838V303.678H237.037V291.838H238.493ZM248.914 298.798C248.914 299.108 248.892 299.374 248.85 299.598H241.826C241.858 300.601 242.14 301.353 242.674 301.854C243.218 302.356 243.879 302.606 244.658 302.606C245.362 302.606 245.948 302.43 246.418 302.078C246.898 301.716 247.191 301.236 247.298 300.638H248.85C248.743 301.246 248.503 301.79 248.13 302.27C247.767 302.75 247.292 303.124 246.706 303.39C246.119 303.657 245.458 303.79 244.722 303.79C243.879 303.79 243.132 303.609 242.482 303.246C241.831 302.884 241.319 302.366 240.946 301.694C240.583 301.012 240.402 300.212 240.402 299.294C240.402 298.377 240.583 297.577 240.946 296.894C241.319 296.212 241.831 295.689 242.482 295.326C243.132 294.964 243.879 294.782 244.722 294.782C245.575 294.782 246.316 294.964 246.946 295.326C247.586 295.689 248.071 296.174 248.402 296.782C248.743 297.39 248.914 298.062 248.914 298.798ZM247.442 298.894C247.474 298.244 247.367 297.7 247.122 297.262C246.876 296.825 246.54 296.5 246.114 296.286C245.687 296.073 245.223 295.966 244.722 295.966C243.922 295.966 243.25 296.217 242.706 296.718C242.162 297.209 241.868 297.934 241.826 298.894H247.442ZM258.371 294.782C259.224 294.782 259.944 294.996 260.531 295.422C261.128 295.849 261.544 296.42 261.779 297.134V294.894H263.235V303.678H261.779V301.438C261.544 302.153 261.128 302.724 260.531 303.15C259.944 303.577 259.224 303.79 258.371 303.79C257.592 303.79 256.899 303.609 256.291 303.246C255.683 302.884 255.203 302.366 254.851 301.694C254.51 301.012 254.339 300.212 254.339 299.294C254.339 298.377 254.51 297.577 254.851 296.894C255.203 296.212 255.683 295.689 256.291 295.326C256.899 294.964 257.592 294.782 258.371 294.782ZM258.787 296.078C257.891 296.078 257.171 296.366 256.627 296.942C256.094 297.508 255.827 298.292 255.827 299.294C255.827 300.297 256.094 301.086 256.627 301.662C257.171 302.228 257.891 302.51 258.787 302.51C259.363 302.51 259.875 302.377 260.323 302.11C260.782 301.844 261.139 301.47 261.395 300.99C261.651 300.5 261.779 299.934 261.779 299.294C261.779 298.654 261.651 298.089 261.395 297.598C261.139 297.108 260.782 296.734 260.323 296.478C259.875 296.212 259.363 296.078 258.787 296.078ZM270.176 294.75C271.2 294.75 272.027 295.081 272.656 295.742C273.286 296.393 273.6 297.337 273.6 298.574V303.678H272.144V298.702C272.144 297.828 271.92 297.156 271.472 296.686C271.024 296.217 270.416 295.982 269.648 295.982C268.848 295.982 268.208 296.244 267.728 296.766C267.248 297.278 267.008 298.03 267.008 299.022V303.678H265.552V294.894H267.008V296.974C267.232 296.26 267.627 295.71 268.192 295.326C268.768 294.942 269.43 294.75 270.176 294.75ZM279.434 294.782C280.287 294.782 281.007 294.996 281.594 295.422C282.191 295.849 282.607 296.42 282.842 297.134V291.838H284.298V303.678H282.842V301.438C282.607 302.153 282.191 302.724 281.594 303.15C281.007 303.577 280.287 303.79 279.434 303.79C278.655 303.79 277.962 303.609 277.354 303.246C276.746 302.884 276.266 302.366 275.914 301.694C275.572 301.012 275.402 300.212 275.402 299.294C275.402 298.377 275.572 297.577 275.914 296.894C276.266 296.212 276.746 295.689 277.354 295.326C277.962 294.964 278.655 294.782 279.434 294.782ZM279.85 296.078C278.954 296.078 278.234 296.366 277.69 296.942C277.156 297.508 276.89 298.292 276.89 299.294C276.89 300.297 277.156 301.086 277.69 301.662C278.234 302.228 278.954 302.51 279.85 302.51C280.426 302.51 280.938 302.377 281.386 302.11C281.844 301.844 282.202 301.47 282.458 300.99C282.714 300.5 282.842 299.934 282.842 299.294C282.842 298.654 282.714 298.089 282.458 297.598C282.202 297.108 281.844 296.734 281.386 296.478C280.938 296.212 280.426 296.078 279.85 296.078ZM109.166 326.398V327.678H108.078C107.182 327.678 106.51 327.465 106.062 327.038C105.625 326.612 105.406 325.897 105.406 324.894V320.158H104.094V318.894H105.406V316.702H106.878V318.894H109.15V320.158H106.878V324.926C106.878 325.492 106.98 325.881 107.182 326.094C107.396 326.297 107.758 326.398 108.27 326.398H109.166ZM112.399 320.67C112.687 320.062 113.108 319.593 113.663 319.262C114.218 318.921 114.879 318.75 115.647 318.75V320.334H115.199C114.378 320.334 113.706 320.548 113.183 320.974C112.66 321.39 112.399 322.084 112.399 323.054V327.678H110.943V318.894H112.399V320.67ZM124.892 318.894V327.678H123.436V325.614C123.212 326.329 122.812 326.878 122.236 327.262C121.67 327.636 121.009 327.822 120.252 327.822C119.238 327.822 118.417 327.497 117.788 326.846C117.158 326.185 116.844 325.241 116.844 324.014V318.894H118.3V323.87C118.3 324.745 118.524 325.422 118.972 325.902C119.42 326.372 120.028 326.606 120.796 326.606C121.596 326.606 122.236 326.35 122.716 325.838C123.196 325.316 123.436 324.558 123.436 323.566V318.894H124.892ZM129.976 318.782C130.968 318.782 131.763 319.044 132.36 319.566C132.968 320.078 133.336 320.772 133.464 321.646H132.072C132.008 321.124 131.79 320.697 131.416 320.366C131.054 320.025 130.563 319.854 129.944 319.854C129.422 319.854 129.011 319.982 128.712 320.238C128.424 320.484 128.28 320.82 128.28 321.246C128.28 321.566 128.376 321.828 128.568 322.03C128.771 322.222 129.016 322.372 129.304 322.478C129.603 322.574 130.008 322.681 130.52 322.798C131.171 322.948 131.694 323.102 132.088 323.262C132.494 323.412 132.835 323.657 133.112 323.998C133.4 324.34 133.544 324.798 133.544 325.374C133.544 326.089 133.272 326.67 132.728 327.118C132.195 327.566 131.48 327.79 130.584 327.79C129.539 327.79 128.686 327.54 128.024 327.038C127.363 326.537 126.974 325.838 126.856 324.942H128.264C128.318 325.476 128.547 325.908 128.952 326.238C129.368 326.569 129.912 326.734 130.584 326.734C131.086 326.734 131.475 326.606 131.752 326.35C132.04 326.094 132.184 325.758 132.184 325.342C132.184 325.001 132.083 324.729 131.88 324.526C131.678 324.324 131.427 324.169 131.128 324.062C130.83 323.956 130.419 323.844 129.896 323.726C129.246 323.577 128.723 323.428 128.328 323.278C127.944 323.129 127.614 322.894 127.336 322.574C127.07 322.244 126.936 321.801 126.936 321.246C126.936 320.51 127.208 319.918 127.752 319.47C128.296 319.012 129.038 318.782 129.976 318.782ZM139.682 326.398V327.678H138.594C137.698 327.678 137.026 327.465 136.578 327.038C136.14 326.612 135.922 325.897 135.922 324.894V320.158H134.61V318.894H135.922V316.702H137.394V318.894H139.666V320.158H137.394V324.926C137.394 325.492 137.495 325.881 137.698 326.094C137.911 326.297 138.274 326.398 138.786 326.398H139.682ZM153.523 318.894L150.995 327.678H149.427L147.011 320.526L144.579 327.678H142.995L140.499 318.894H141.971L143.843 326.286L146.275 318.894H147.795L150.243 326.27L152.131 318.894H153.523ZM158.864 318.782C159.707 318.782 160.459 318.964 161.12 319.326C161.792 319.689 162.315 320.212 162.688 320.894C163.072 321.577 163.264 322.377 163.264 323.294C163.264 324.212 163.072 325.012 162.688 325.694C162.315 326.366 161.792 326.884 161.12 327.246C160.459 327.609 159.707 327.79 158.864 327.79C158.022 327.79 157.264 327.609 156.592 327.246C155.931 326.884 155.408 326.366 155.024 325.694C154.64 325.012 154.448 324.212 154.448 323.294C154.448 322.377 154.64 321.577 155.024 320.894C155.408 320.212 155.931 319.689 156.592 319.326C157.264 318.964 158.022 318.782 158.864 318.782ZM158.864 320.062C158.342 320.062 157.856 320.18 157.408 320.414C156.971 320.649 156.614 321.012 156.336 321.502C156.07 321.982 155.936 322.58 155.936 323.294C155.936 323.998 156.07 324.596 156.336 325.086C156.614 325.566 156.971 325.924 157.408 326.158C157.856 326.393 158.342 326.51 158.864 326.51C159.387 326.51 159.867 326.393 160.304 326.158C160.752 325.924 161.11 325.566 161.376 325.086C161.654 324.596 161.792 323.998 161.792 323.294C161.792 322.58 161.654 321.982 161.376 321.502C161.11 321.012 160.752 320.649 160.304 320.414C159.867 320.18 159.387 320.062 158.864 320.062ZM166.618 320.67C166.906 320.062 167.327 319.593 167.882 319.262C168.436 318.921 169.098 318.75 169.866 318.75V320.334H169.418C168.596 320.334 167.924 320.548 167.402 320.974C166.879 321.39 166.618 322.084 166.618 323.054V327.678H165.162V318.894H166.618V320.67ZM175.494 326.398V327.678H174.406C173.51 327.678 172.838 327.465 172.39 327.038C171.953 326.612 171.734 325.897 171.734 324.894V320.158H170.422V318.894H171.734V316.702H173.206V318.894H175.478V320.158H173.206V324.926C173.206 325.492 173.308 325.881 173.51 326.094C173.724 326.297 174.086 326.398 174.598 326.398H175.494ZM181.895 318.75C182.919 318.75 183.746 319.081 184.375 319.742C185.004 320.393 185.319 321.337 185.319 322.574V327.678H183.863V322.702C183.863 321.828 183.639 321.156 183.191 320.686C182.743 320.217 182.135 319.982 181.367 319.982C180.567 319.982 179.927 320.244 179.447 320.766C178.967 321.278 178.727 322.03 178.727 323.022V327.678H177.271V315.838H178.727V320.974C178.951 320.26 179.346 319.71 179.911 319.326C180.487 318.942 181.148 318.75 181.895 318.75ZM188.16 318.894L191.008 325.806L193.648 318.894H195.264L190.048 331.838H188.4L190.224 327.534L186.528 318.894H188.16ZM205.4 318.782C206.179 318.782 206.872 318.964 207.48 319.326C208.088 319.689 208.563 320.212 208.904 320.894C209.256 321.577 209.432 322.377 209.432 323.294C209.432 324.212 209.256 325.012 208.904 325.694C208.563 326.366 208.088 326.884 207.48 327.246C206.872 327.609 206.179 327.79 205.4 327.79C204.547 327.79 203.822 327.577 203.224 327.15C202.638 326.713 202.232 326.142 202.008 325.438V331.838H200.552V318.894H202.008V321.134C202.232 320.43 202.638 319.865 203.224 319.438C203.822 319.001 204.547 318.782 205.4 318.782ZM204.984 320.078C204.419 320.078 203.907 320.212 203.448 320.478C202.99 320.734 202.632 321.108 202.376 321.598C202.12 322.089 201.992 322.654 201.992 323.294C201.992 323.934 202.12 324.5 202.376 324.99C202.632 325.47 202.99 325.844 203.448 326.11C203.907 326.377 204.419 326.51 204.984 326.51C205.891 326.51 206.611 326.228 207.144 325.662C207.688 325.086 207.96 324.297 207.96 323.294C207.96 322.292 207.688 321.508 207.144 320.942C206.611 320.366 205.891 320.078 204.984 320.078ZM214.934 318.782C215.787 318.782 216.507 318.996 217.094 319.422C217.691 319.849 218.107 320.42 218.342 321.134V318.894H219.798V327.678H218.342V325.438C218.107 326.153 217.691 326.724 217.094 327.15C216.507 327.577 215.787 327.79 214.934 327.79C214.155 327.79 213.462 327.609 212.854 327.246C212.246 326.884 211.766 326.366 211.414 325.694C211.072 325.012 210.902 324.212 210.902 323.294C210.902 322.377 211.072 321.577 211.414 320.894C211.766 320.212 212.246 319.689 212.854 319.326C213.462 318.964 214.155 318.782 214.934 318.782ZM215.35 320.078C214.454 320.078 213.734 320.366 213.19 320.942C212.656 321.508 212.39 322.292 212.39 323.294C212.39 324.297 212.656 325.086 213.19 325.662C213.734 326.228 214.454 326.51 215.35 326.51C215.926 326.51 216.438 326.377 216.886 326.11C217.344 325.844 217.702 325.47 217.958 324.99C218.214 324.5 218.342 323.934 218.342 323.294C218.342 322.654 218.214 322.089 217.958 321.598C217.702 321.108 217.344 320.734 216.886 320.478C216.438 320.212 215.926 320.078 215.35 320.078ZM223.571 320.67C223.859 320.062 224.28 319.593 224.835 319.262C225.389 318.921 226.051 318.75 226.819 318.75V320.334H226.371C225.549 320.334 224.877 320.548 224.355 320.974C223.832 321.39 223.571 322.084 223.571 323.054V327.678H222.115V318.894H223.571V320.67ZM232.447 326.398V327.678H231.359C230.463 327.678 229.791 327.465 229.343 327.038C228.906 326.612 228.687 325.897 228.687 324.894V320.158H227.375V318.894H228.687V316.702H230.159V318.894H232.431V320.158H230.159V324.926C230.159 325.492 230.261 325.881 230.463 326.094C230.677 326.297 231.039 326.398 231.551 326.398H232.447ZM238.848 318.75C239.872 318.75 240.699 319.081 241.328 319.742C241.958 320.393 242.272 321.337 242.272 322.574V327.678H240.816V322.702C240.816 321.828 240.592 321.156 240.144 320.686C239.696 320.217 239.088 319.982 238.32 319.982C237.52 319.982 236.88 320.244 236.4 320.766C235.92 321.278 235.68 322.03 235.68 323.022V327.678H234.224V318.894H235.68V320.974C235.904 320.26 236.299 319.71 236.864 319.326C237.44 318.942 238.102 318.75 238.848 318.75ZM252.585 322.798C252.585 323.108 252.564 323.374 252.521 323.598H245.497C245.529 324.601 245.812 325.353 246.345 325.854C246.889 326.356 247.551 326.606 248.329 326.606C249.033 326.606 249.62 326.43 250.089 326.078C250.569 325.716 250.863 325.236 250.969 324.638H252.521C252.415 325.246 252.175 325.79 251.801 326.27C251.439 326.75 250.964 327.124 250.377 327.39C249.791 327.657 249.129 327.79 248.393 327.79C247.551 327.79 246.804 327.609 246.153 327.246C245.503 326.884 244.991 326.366 244.617 325.694C244.255 325.012 244.073 324.212 244.073 323.294C244.073 322.377 244.255 321.577 244.617 320.894C244.991 320.212 245.503 319.689 246.153 319.326C246.804 318.964 247.551 318.782 248.393 318.782C249.247 318.782 249.988 318.964 250.617 319.326C251.257 319.689 251.743 320.174 252.073 320.782C252.415 321.39 252.585 322.062 252.585 322.798ZM251.113 322.894C251.145 322.244 251.039 321.7 250.793 321.262C250.548 320.825 250.212 320.5 249.785 320.286C249.359 320.073 248.895 319.966 248.393 319.966C247.593 319.966 246.921 320.217 246.377 320.718C245.833 321.209 245.54 321.934 245.497 322.894H251.113ZM255.946 320.67C256.234 320.062 256.655 319.593 257.21 319.262C257.764 318.921 258.426 318.75 259.194 318.75V320.334H258.746C257.924 320.334 257.252 320.548 256.73 320.974C256.207 321.39 255.946 322.084 255.946 323.054V327.678H254.49V318.894H255.946V320.67ZM261.702 325.966V327.678H259.942V325.966H261.702Z" fill="black"/>
<path d="M209.133 172.917C207.214 170.942 205.18 169.199 203.727 167.108C200.181 161.996 195.065 163.507 190.299 163.565C189.659 163.565 188.381 165.075 188.497 165.656C188.671 166.527 189.718 167.573 190.589 167.805C191.81 168.154 193.263 168.038 194.6 167.921C197.042 167.631 198.844 168.444 200.471 170.303C202.564 172.685 205.005 174.834 207.214 177.1C208.726 178.668 210.237 178.726 211.69 177.1C213.143 175.473 214.422 173.672 215.585 172.336C224.944 181.631 233.489 190.112 241.975 198.593C235.814 204.692 229.594 210.85 223.258 217.124C222.793 216.717 222.27 216.194 221.688 215.672C210.121 204.112 198.553 192.552 186.985 180.934C184.253 178.203 183.614 178.203 180.824 180.992C178.441 183.373 176.057 185.813 173.616 188.137C169.024 192.435 162.397 192.842 157.63 189.182C158.154 188.602 158.619 188.021 159.2 187.498C173.151 173.556 187.102 159.498 201.169 145.615C207.098 139.748 210.121 132.951 210.004 124.586C209.888 115.989 209.946 107.333 210.004 98.7361C210.004 96.4125 209.307 95.2507 206.982 94.6117C199.251 92.4624 191.578 90.0226 183.847 87.8152C182.626 87.4666 181.173 87.4666 179.952 87.8152C172.221 90.0226 164.548 92.4624 156.817 94.6117C154.491 95.2507 153.736 96.4125 153.794 98.7361C153.91 107.74 153.852 116.744 153.794 125.748C153.736 133.125 156.41 139.341 161.467 144.569C165.303 148.519 169.256 152.353 173.151 156.303C174.43 157.581 175.883 158.685 177.394 157.175C178.847 155.664 177.743 154.212 176.464 152.934C172.453 148.984 168.501 144.976 164.548 141.026C160.421 136.901 158.328 131.906 158.27 126.155C158.154 117.848 158.27 109.483 158.212 101.176C158.212 99.3751 158.851 98.7361 160.537 98.2133C167.164 96.3544 173.674 94.2632 180.301 92.4043C181.347 92.1138 182.626 92.1138 183.672 92.4043C190.183 94.2632 196.635 96.3544 203.145 98.1552C205.064 98.678 205.47 99.6075 205.47 101.408C205.412 109.367 205.412 117.267 205.412 125.225C205.412 131.673 203.087 137.076 198.553 141.607C189.369 150.727 180.01 159.789 171.116 169.199C167.803 172.685 164.49 173.905 159.781 173.905C155.654 173.905 153.096 172.278 150.306 168.212C151.294 167.573 152.515 166.876 153.561 166.063C155.712 164.378 155.654 162.693 153.678 160.776C149.086 156.362 144.61 151.772 140.134 147.241C138.506 145.557 137.053 145.208 135.193 147.009C122.114 160.137 109.035 173.15 95.9558 186.22C94.5607 187.614 94.3282 188.95 95.8395 190.46C100.722 195.282 105.605 200.161 110.43 205.041C111.883 206.493 113.336 206.551 114.673 204.983C115.72 203.763 116.592 202.427 117.289 201.498C119.672 203.705 121.242 205.215 122.869 206.726C113.511 214.684 118.219 225.256 128.101 226.012C128.45 232.46 132.228 235.655 138.448 236.235C138.855 242.858 142.633 246.053 148.737 246.575C149.609 252.384 151.992 255.405 156.235 256.393C161.293 257.613 164.722 254.882 167.977 251.281C170.884 254.185 173.558 256.974 176.348 259.646C182.045 265.106 190.241 263.015 192.682 255.463C192.798 254.999 193.031 254.592 193.205 254.243C200.297 254.592 202.39 253.198 205.819 245.82C211.981 246.692 215.992 243.961 217.91 238.094C222.851 239.14 227.152 238.559 229.768 233.97C232.733 228.8 230.989 224.327 227.327 220.958C233.663 214.452 239.883 208.12 246.451 201.439C247.091 202.253 247.672 203.182 248.428 203.879C251.043 206.551 251.567 206.551 254.299 203.821C258.833 199.29 263.309 194.759 267.901 190.286C269.703 188.543 269.586 187.149 267.901 185.407C254.822 172.452 241.859 159.44 228.838 146.428C227.327 144.86 225.99 144.743 224.42 146.312C219.596 151.191 214.713 156.071 209.83 160.893C208.261 162.461 208.377 163.913 209.946 165.365C211.167 166.411 212.446 167.399 213.783 168.502C211.748 170.303 210.644 171.407 209.133 172.917Z" fill="white"/>
<path d="M177.917 125.225C175.825 122.96 174.255 120.926 172.279 119.242C171.523 118.603 169.954 118.835 168.733 118.719C168.849 119.939 168.442 121.507 169.082 122.263C171.174 124.76 173.558 127.142 176.057 129.233C176.813 129.872 178.906 130.163 179.487 129.582C184.777 124.586 189.892 119.474 194.891 114.246C195.414 113.665 195.007 112.213 195.065 111.167C193.961 111.167 192.798 111.051 191.752 111.284C191.171 111.4 190.764 112.155 190.299 112.678C186.288 116.628 182.335 120.694 177.917 125.225Z" fill="white"/>
<path d="M209.133 172.917C210.702 171.407 211.806 170.361 213.55 168.677C212.213 167.573 210.935 166.585 209.714 165.54C208.086 164.146 207.97 162.635 209.598 161.067C214.48 156.245 219.363 151.366 224.188 146.486C225.757 144.918 227.094 145.034 228.606 146.602C241.627 159.615 254.647 172.627 267.668 185.581C269.412 187.324 269.528 188.66 267.668 190.46C263.076 194.933 258.6 199.464 254.066 203.995C251.334 206.668 250.869 206.726 248.195 204.053C247.439 203.298 246.858 202.369 246.219 201.614C239.65 208.294 233.43 214.626 227.094 221.132C230.756 224.501 232.442 228.974 229.536 234.144C226.92 238.675 222.618 239.314 217.677 238.269C215.759 244.136 211.748 246.866 205.587 245.995C202.157 253.372 200.064 254.766 192.973 254.418C192.798 254.824 192.624 255.231 192.45 255.637C190.008 263.189 181.812 265.28 176.115 259.82C173.325 257.148 170.651 254.36 167.745 251.455C164.49 255.115 161.06 257.787 156.003 256.567C151.818 255.579 149.434 252.559 148.504 246.75C142.401 246.227 138.622 243.032 138.215 236.41C131.996 235.771 128.217 232.634 127.868 226.186C117.987 225.431 113.336 214.858 122.637 206.9C121.067 205.39 119.44 203.937 117.057 201.672C116.417 202.543 115.487 203.937 114.441 205.157C113.104 206.726 111.709 206.726 110.197 205.215C105.373 200.336 100.49 195.456 95.607 190.635C94.0956 189.124 94.3281 187.788 95.7232 186.394C108.802 173.324 121.939 160.254 134.96 147.183C136.762 145.382 138.274 145.731 139.901 147.416C144.377 151.947 148.853 156.536 153.445 160.951C155.422 162.868 155.538 164.552 153.329 166.237C152.283 167.05 151.062 167.747 150.074 168.386C152.864 172.452 155.363 174.079 159.549 174.079C164.257 174.079 167.57 172.859 170.884 169.374C179.777 159.963 189.136 150.901 198.321 141.781C202.913 137.25 205.238 131.847 205.18 125.399C205.18 117.441 205.122 109.541 205.238 101.583C205.238 99.7817 204.831 98.8523 202.913 98.3295C196.402 96.5287 189.95 94.4374 183.44 92.5786C182.393 92.2881 181.114 92.23 180.068 92.5786C173.441 94.4374 166.931 96.5287 160.304 98.3876C158.619 98.8523 157.921 99.4913 157.979 101.35C158.095 109.657 157.921 118.022 158.037 126.329C158.095 132.08 160.246 137.076 164.315 141.2C168.268 145.15 172.221 149.158 176.232 153.108C177.51 154.386 178.615 155.839 177.162 157.349C175.708 158.859 174.197 157.756 172.918 156.478C169.024 152.586 165.071 148.694 161.234 144.743C156.177 139.515 153.503 133.3 153.561 125.922C153.62 116.918 153.62 107.914 153.561 98.9104C153.561 96.5868 154.259 95.425 156.584 94.786C164.315 92.6366 171.988 90.1969 179.719 87.9894C180.94 87.6409 182.393 87.6409 183.614 87.9894C191.345 90.1969 199.018 92.6366 206.749 94.786C209.074 95.425 209.772 96.5868 209.772 98.9104C209.656 107.508 209.656 116.163 209.772 124.76C209.888 133.067 206.866 139.922 200.936 145.789C186.869 159.673 172.976 173.672 158.967 187.672C158.444 188.195 157.921 188.776 157.398 189.357C162.164 193.074 168.791 192.61 173.383 188.311C175.825 185.987 178.208 183.548 180.591 181.166C183.381 178.378 184.021 178.378 186.753 181.108C198.321 192.668 209.888 204.228 221.456 215.846C221.979 216.369 222.56 216.891 223.025 217.298C229.361 211.024 235.581 204.809 241.743 198.767C233.256 190.344 224.653 181.805 215.352 172.511C214.248 173.905 212.911 175.647 211.458 177.274C210.063 178.9 208.551 178.842 206.982 177.274C204.773 174.95 202.331 172.859 200.239 170.477C198.611 168.619 196.809 167.863 194.368 168.096C193.031 168.27 191.578 168.386 190.357 167.98C189.485 167.689 188.439 166.643 188.264 165.83C188.148 165.249 189.369 163.739 190.066 163.739C194.833 163.681 199.948 162.17 203.494 167.282C205.122 169.199 207.214 170.884 209.133 172.917ZM183.614 184.303C181.405 186.626 179.312 189.008 176.987 191.216C170.477 197.315 160.537 197.78 153.852 192.377C151.062 190.112 150.946 189.066 153.445 186.626C156.061 184.07 158.677 181.631 161.351 179.133C161.293 178.784 161.176 178.494 161.118 178.145C155.015 179.714 150.771 177.042 147.632 172.569C138.797 181.398 130.252 189.938 121.707 198.419C123.16 199.987 124.73 201.614 126.415 203.414C129.554 199.581 133.158 197.141 138.099 198.419C143.098 199.697 145.075 203.531 145.481 208.352C152.166 208.701 155.305 212.477 155.887 218.576C162.978 219.796 164.78 221.597 166.35 229.032C171.174 229.381 174.837 231.472 176.115 236.468C177.394 241.463 174.72 245.007 170.942 248.202C173.906 251.106 176.639 253.837 179.429 256.509C181.812 258.774 184.835 258.832 186.869 256.683C188.846 254.65 188.729 251.745 186.52 249.422C184.66 247.447 182.684 245.588 180.766 243.671C179.603 242.567 178.847 241.289 180.184 239.895C181.521 238.559 182.8 239.256 183.963 240.418C186.462 242.974 189.02 245.53 191.578 248.028C194.019 250.409 196.925 250.584 199.076 248.55C201.285 246.459 201.169 243.38 198.727 240.883C196.635 238.733 194.426 236.7 192.391 234.493C191.113 233.157 188.439 231.762 190.706 229.613C192.856 227.58 194.31 230.136 195.647 231.414C198.495 234.144 201.227 237.049 204.075 239.837C206.517 242.219 209.481 242.277 211.574 240.127C213.667 237.978 213.55 235.132 211.167 232.692C208.086 229.613 205.005 226.534 201.925 223.456C200.704 222.236 199.425 220.842 200.994 219.273C202.564 217.647 203.959 218.925 205.18 220.144C209.133 224.095 213.085 228.103 217.096 232.053C219.886 234.841 222.618 235.074 224.944 232.808C227.211 230.543 227.036 227.812 224.188 224.966C219.828 220.551 215.469 216.194 211.051 211.779C202.041 202.601 192.973 193.597 183.614 184.303ZM262.785 188.195C250.578 175.996 238.255 163.681 226.106 151.54C222.328 155.316 218.317 159.324 214.538 163.042C226.746 175.299 239.069 187.614 251.218 199.755C255.054 195.979 259.065 191.913 262.785 188.195ZM112.232 199.813C124.381 187.73 136.762 175.415 148.911 163.332C145.191 159.556 141.238 155.606 137.75 152.005C125.427 164.262 113.046 176.519 100.897 188.66C104.675 192.435 108.686 196.327 112.232 199.813ZM147.516 242.335C149.085 241.638 150.306 241.347 151.12 240.65C154.259 237.688 157.398 234.609 160.362 231.414C162.164 229.497 161.874 226.709 160.13 224.85C158.27 222.933 155.363 222.584 153.329 224.443C150.132 227.406 146.935 230.368 144.203 233.738C143.273 234.899 143.156 237.455 143.738 239.024C144.203 240.418 146.179 241.289 147.516 242.335ZM172.57 238.385C171.291 236.874 170.361 235.248 168.907 234.26C167.047 232.982 164.955 233.563 163.385 235.132C160.595 237.804 157.863 240.534 155.189 243.322C152.864 245.704 152.748 248.667 154.84 250.758C156.933 252.791 159.897 252.675 162.281 250.351C164.897 247.795 167.57 245.239 170.012 242.567C171 241.58 171.523 240.186 172.57 238.385ZM141.354 207.248C140.134 205.796 139.204 204.112 137.75 203.124C135.89 201.846 133.798 202.485 132.17 203.995C129.38 206.668 126.648 209.398 123.974 212.186C121.532 214.684 121.474 217.414 123.625 219.622C125.66 221.713 128.624 221.597 131.066 219.273C133.798 216.659 136.472 214.045 139.029 211.257C139.959 210.327 140.424 208.991 141.354 207.248ZM137.053 231.937C138.622 231.298 139.843 231.123 140.541 230.484C143.854 227.348 147.109 224.211 150.132 220.842C151.876 218.866 151.469 216.485 149.725 214.51C147.981 212.593 145.133 212.128 143.214 213.929C139.843 216.949 136.588 220.144 133.681 223.63C132.751 224.734 132.751 227.231 133.333 228.626C133.914 230.078 135.774 230.949 137.053 231.937Z" fill="#1459C0"/>
<path d="M177.917 125.225C182.277 120.752 186.288 116.686 190.241 112.62C190.706 112.155 191.113 111.342 191.694 111.225C192.74 110.993 193.903 111.167 195.007 111.109C195.007 112.155 195.414 113.607 194.833 114.188C189.834 119.416 184.718 124.586 179.429 129.524C178.847 130.047 176.755 129.814 175.999 129.175C173.5 127.084 171.174 124.702 169.024 122.204C168.384 121.449 168.791 119.881 168.675 118.661C169.896 118.835 171.407 118.545 172.221 119.184C174.255 120.868 175.883 122.96 177.917 125.225Z" fill="#1459C0"/>
<path d="M183.614 184.303C192.973 193.597 202.041 202.601 211.109 211.605C215.527 215.962 219.886 220.377 224.246 224.792C227.036 227.638 227.269 230.368 225.002 232.634C222.676 234.899 219.944 234.667 217.154 231.879C213.201 227.928 209.191 223.92 205.238 219.97C204.017 218.75 202.622 217.472 201.053 219.099C199.483 220.667 200.762 222.061 201.983 223.281C205.063 226.36 208.202 229.381 211.225 232.518C213.608 234.957 213.783 237.862 211.632 239.953C209.539 242.102 206.575 242.044 204.133 239.663C201.285 236.874 198.553 234.028 195.705 231.24C194.31 229.904 192.915 227.348 190.764 229.439C188.497 231.588 191.113 232.982 192.45 234.318C194.484 236.526 196.693 238.559 198.786 240.708C201.227 243.206 201.343 246.285 199.134 248.376C197.042 250.409 194.077 250.235 191.636 247.853C189.078 245.356 186.578 242.8 184.021 240.244C182.858 239.082 181.579 238.385 180.242 239.721C178.905 241.057 179.661 242.335 180.824 243.497C182.742 245.414 184.718 247.272 186.579 249.248C188.787 251.571 188.846 254.476 186.927 256.509C184.835 258.658 181.812 258.6 179.487 256.335C176.697 253.662 173.965 250.932 171 248.028C174.836 244.833 177.452 241.289 176.173 236.293C174.895 231.298 171.232 229.206 166.408 228.858C164.838 221.422 163.036 219.68 155.945 218.402C155.363 212.302 152.224 208.468 145.54 208.178C145.133 203.298 143.156 199.522 138.157 198.244C133.216 196.966 129.554 199.406 126.473 203.24C124.788 201.439 123.218 199.813 121.765 198.244C130.252 189.763 138.797 181.224 147.69 172.394C150.829 176.867 155.073 179.481 161.176 177.971C161.234 178.32 161.351 178.61 161.409 178.959C158.793 181.456 156.119 183.954 153.503 186.452C151.004 188.95 151.062 189.996 153.91 192.203C160.595 197.547 170.535 197.141 177.045 191.041C179.312 189.066 181.405 186.626 183.614 184.303Z" fill="white"/>
<path d="M262.785 188.195C259.065 191.913 255.054 195.921 251.218 199.755C239.069 187.614 226.745 175.241 214.538 163.042C218.259 159.324 222.27 155.316 226.106 151.54C238.313 163.739 250.636 176.054 262.785 188.195Z" fill="white"/>
<path d="M112.232 199.813C108.686 196.327 104.733 192.435 100.897 188.66C113.104 176.577 125.427 164.262 137.75 152.005C141.296 155.548 145.191 159.556 148.911 163.332C136.762 175.415 124.381 187.73 112.232 199.813Z" fill="white"/>
<path d="M147.516 242.335C146.179 241.231 144.203 240.418 143.68 239.024C143.098 237.513 143.214 234.957 144.145 233.737C146.877 230.368 150.074 227.406 153.271 224.443C155.305 222.584 158.212 222.875 160.072 224.85C161.816 226.709 162.106 229.497 160.304 231.414C157.34 234.609 154.259 237.629 151.062 240.65C150.364 241.405 149.144 241.638 147.516 242.335Z" fill="white"/>
<path d="M172.569 238.385C171.523 240.185 170.942 241.58 170.012 242.567C167.512 245.239 164.896 247.795 162.281 250.351C159.897 252.675 156.875 252.791 154.84 250.758C152.748 248.667 152.864 245.704 155.189 243.322C157.863 240.534 160.595 237.804 163.385 235.132C165.013 233.563 167.047 232.982 168.907 234.26C170.361 235.248 171.291 236.932 172.569 238.385Z" fill="white"/>
<path d="M141.354 207.248C140.366 208.991 139.959 210.327 139.087 211.257C136.53 214.045 133.856 216.659 131.124 219.273C128.682 221.597 125.66 221.713 123.683 219.622C121.532 217.414 121.591 214.684 124.032 212.186C126.706 209.398 129.438 206.668 132.228 203.995C133.856 202.427 135.89 201.846 137.808 203.124C139.262 204.112 140.192 205.854 141.354 207.248Z" fill="white"/>
<path d="M137.053 231.937C135.832 230.891 133.914 230.078 133.333 228.684C132.751 227.289 132.809 224.734 133.681 223.688C136.588 220.202 139.843 217.066 143.214 213.987C145.191 212.186 147.981 212.651 149.725 214.568C151.469 216.543 151.876 218.924 150.132 220.9C147.109 224.269 143.796 227.406 140.541 230.543C139.843 231.123 138.622 231.298 137.053 231.937Z" fill="white"/>
</svg>
