<svg width="52" height="52" viewBox="0 0 52 52" fill="none" xmlns="http://www.w3.org/2000/svg">
<path d="M26 0C11.6391 0 0 11.6391 0 26C0 40.3609 11.6391 52 26 52C40.3609 52 52 40.3609 52 26C52 11.6391 40.3609 0 26 0ZM42.2297 42.2195C40.1172 44.332 37.6695 45.9875 34.9375 47.1352C32.1141 48.3336 29.1078 48.9328 26 48.9328C22.9023 48.9328 19.8961 48.3234 17.0625 47.1352C14.3305 45.9773 11.8727 44.3219 9.77031 42.2195C7.65781 40.107 6.00234 37.6594 4.85469 34.9273C3.65625 32.1039 3.04688 29.0977 3.04688 26C3.04688 22.9023 3.65625 19.8961 4.84453 17.0625C6.00234 14.3305 7.65781 11.8727 9.76016 9.77031C11.8828 7.65781 14.3305 6.00234 17.0625 4.84453C19.8961 3.65625 22.9023 3.04688 26 3.04688C29.0977 3.04688 32.1039 3.65625 34.9375 4.84453C37.6695 6.00234 40.1273 7.65781 42.2297 9.76016C44.3422 11.8727 45.9977 14.3203 47.1453 17.0523C48.3438 19.8758 48.943 22.882 48.943 25.9898C48.943 29.0875 48.3336 32.0938 47.1453 34.9273C45.9875 37.6594 44.332 40.1172 42.2297 42.2195Z" fill="black"/>
<path d="M33.9828 13H18.0375C15.2648 13 13.0101 15.2547 13.0101 18.0273V23.3391V33.9828C13.0101 36.7555 15.2648 39.0102 18.0375 39.0102H33.9828C36.7554 39.0102 39.0101 36.7555 39.0101 33.9828V23.3289V18.0172C39 15.2547 36.7453 13 33.9828 13ZM35.425 15.9961H36.0039V16.5648V20.4039L31.6062 20.4141L31.5961 16.0063L35.425 15.9961ZM22.2929 23.3289C23.1258 22.1813 24.4765 21.4195 26 21.4195C27.5234 21.4195 28.8742 22.1711 29.707 23.3289C30.2554 24.0805 30.5703 25.0047 30.5703 26C30.5703 28.5188 28.5187 30.5805 25.9898 30.5805C23.4609 30.5805 21.4297 28.5188 21.4297 26C21.4297 25.0047 21.7547 24.0805 22.2929 23.3289ZM36.4711 33.9727C36.4711 35.3438 35.3539 36.4609 33.9828 36.4609H18.0375C16.6664 36.4609 15.5492 35.3438 15.5492 33.9727V23.3289H19.4289C19.0937 24.1516 18.9008 25.0555 18.9008 26C18.9008 29.9203 22.0898 33.1094 26.0101 33.1094C29.9304 33.1094 33.1195 29.9203 33.1195 26C33.1195 25.0555 32.9265 24.1516 32.5914 23.3289H36.4711V33.9727Z" fill="black"/>
</svg>
