<svg width="52" height="52" viewBox="0 0 52 52" fill="none" xmlns="http://www.w3.org/2000/svg">
<path d="M26 0C11.6391 0 0 11.6391 0 26C0 40.3609 11.6391 52 26 52C40.3609 52 52 40.3609 52 26C52 11.6391 40.3609 0 26 0ZM42.2297 42.2195C40.1172 44.332 37.6695 45.9875 34.9375 47.1352C32.1141 48.3336 29.1078 48.9328 26 48.9328C22.9023 48.9328 19.8961 48.3234 17.0625 47.1352C14.3305 45.9773 11.8727 44.3219 9.77031 42.2195C7.65781 40.107 6.00234 37.6594 4.85469 34.9273C3.65625 32.1039 3.04688 29.0977 3.04688 26C3.04688 22.9023 3.65625 19.8961 4.84453 17.0625C6.00234 14.3305 7.65781 11.8727 9.76016 9.77031C11.8828 7.65781 14.3305 6.00234 17.0625 4.84453C19.8961 3.65625 22.9023 3.04688 26 3.04688C29.0977 3.04688 32.1039 3.65625 34.9375 4.84453C37.6695 6.00234 40.1273 7.65781 42.2297 9.76016C44.3422 11.8727 45.9977 14.3203 47.1453 17.0523C48.3438 19.8758 48.943 22.882 48.943 25.9898C48.943 29.0875 48.3336 32.0938 47.1453 34.9273C45.9875 37.6594 44.332 40.1172 42.2297 42.2195Z" fill="black"/>
<path d="M18.7281 20.6577H13.6602V36.8772H18.7281V20.6577Z" fill="black"/>
<path d="M16.0875 13C14.2188 13 12.9899 14.2086 12.9899 15.8133C12.9899 17.3875 14.1781 18.6266 16.0164 18.6266H16.0571C17.9664 18.6266 19.1547 17.3773 19.1446 15.8133C19.1039 14.2086 17.9563 13 16.0875 13Z" fill="black"/>
<path d="M32.5711 20.5054C29.6664 20.5054 27.8484 22.0897 27.5133 23.2069V20.6577H21.8156C21.8867 22.0085 21.8156 36.8772 21.8156 36.8772H27.5133V28.1124C27.5133 27.6147 27.493 27.1272 27.6351 26.7819C28.0211 25.8069 28.8641 24.7913 30.3773 24.7913C32.3578 24.7913 33.2516 26.2944 33.2516 28.4882V36.8772H39V27.8585C39 22.8413 36.1766 20.5054 32.5711 20.5054Z" fill="black"/>
</svg>
