<svg width="229" height="71" viewBox="0 0 229 71" fill="none" xmlns="http://www.w3.org/2000/svg">
<path d="M33.2049 12.9732L29.0127 11.5284L13.0654 57.7474L17.2577 59.1922L33.2049 12.9732Z" fill="white"/>
<path d="M44.8104 25.3772C44.8104 25.9836 44.577 26.5434 44.1569 26.9166C43.7368 27.3364 43.2234 27.523 42.5699 27.523C41.9164 27.523 41.4029 27.3364 40.9828 26.9166C40.5627 26.4968 40.3293 25.9836 40.3293 25.3772C40.3293 24.7707 40.5627 24.211 40.9828 23.8378C41.4029 23.4646 41.9164 23.2313 42.5699 23.2313C43.2234 23.2313 43.7368 23.4179 44.1569 23.8378C44.577 24.2576 44.8104 24.7241 44.8104 25.3772ZM44.437 30.0887V47.3023H40.7961V30.0887H44.437Z" fill="white"/>
<path d="M63.995 37.7858V47.2556H60.3541V38.0191C60.3541 36.3863 60.0274 35.1268 59.3272 34.2871C58.627 33.4475 57.6001 33.0276 56.2465 33.0276C54.7995 33.0276 53.6792 33.5408 52.8857 34.5204C52.0922 35.5 51.6721 36.8995 51.6721 38.6255V47.3022H48.0312V30.0887H51.2053L51.6254 32.3279C52.9324 30.6952 54.7528 29.8555 57.1334 29.8555C59.1872 29.8555 60.8209 30.4619 62.1279 31.7214C63.3415 32.981 63.995 35.0335 63.995 37.7858Z" fill="white"/>
<path d="M84.3928 41.4245C84.3928 43.2905 83.8794 44.7366 82.8525 45.7629C81.8256 46.7892 80.3786 47.2557 78.5115 47.2557H74.8706V43.8036H77.6246C78.6515 43.8036 79.3517 43.5704 79.8184 43.1039C80.2852 42.6374 80.5186 41.891 80.5186 40.8647V23.7445H84.3928V41.4245Z" fill="white"/>
<path d="M88.7806 43.2904C88.0338 41.9376 87.707 40.3982 87.707 38.6722C87.707 36.9461 88.0805 35.4067 88.7806 34.1005C89.5275 32.7477 90.5544 31.7214 91.8613 30.975C93.215 30.2287 94.7087 29.8555 96.4357 29.8555C98.1628 29.8555 99.7032 30.2287 101.01 30.975C102.364 31.7214 103.391 32.7477 104.091 34.1005C104.838 35.4534 105.164 36.9461 105.164 38.6722C105.164 40.3982 104.791 41.9376 104.091 43.2904C103.391 44.6432 102.317 45.6695 101.01 46.3693C99.6565 47.1157 98.1628 47.4422 96.4357 47.4422C94.7087 47.4422 93.1683 47.069 91.8613 46.3693C90.5544 45.6695 89.5275 44.5966 88.7806 43.2904ZM101.57 38.6722C101.57 36.9928 101.103 35.64 100.17 34.567C99.2364 33.4941 98.0228 32.981 96.4824 32.981C94.9421 32.981 93.7284 33.4941 92.8416 34.567C91.9547 35.64 91.4412 36.9928 91.4412 38.6722C91.4412 40.3515 91.908 41.7044 92.8416 42.7773C93.7751 43.8502 94.9887 44.3634 96.4824 44.3634C98.0228 44.3634 99.2364 43.8502 100.17 42.7773C101.103 41.7044 101.57 40.3515 101.57 38.6722Z" fill="white"/>
<path d="M124.489 33.9607C125.189 35.2668 125.516 36.8529 125.516 38.6722C125.516 40.3983 125.189 41.9377 124.489 43.2438C123.789 44.5967 122.809 45.623 121.595 46.3693C120.381 47.1157 118.981 47.4889 117.394 47.4889C116.134 47.4889 115.013 47.2557 114.08 46.7892C113.146 46.3227 112.399 45.6696 111.793 44.8299L111.373 47.3023H108.198V23.7445H111.839V32.6078C113.193 30.7885 115.06 29.8555 117.441 29.8555C119.028 29.8555 120.428 30.2287 121.642 30.9285C122.809 31.6282 123.789 32.6545 124.489 33.9607ZM121.828 38.6722C121.828 36.9929 121.362 35.64 120.428 34.5671C119.494 33.4942 118.281 32.981 116.787 32.981C115.293 32.981 114.08 33.4942 113.146 34.5671C112.213 35.64 111.746 36.9929 111.746 38.6722C111.746 40.3516 112.213 41.7511 113.146 42.824C114.08 43.8969 115.293 44.4567 116.787 44.4567C118.281 44.4567 119.494 43.9436 120.428 42.8707C121.362 41.7511 121.828 40.3516 121.828 38.6722Z" fill="white"/>
<path d="M142.04 42.964C143.067 43.8036 144.374 44.2235 146.007 44.2235C147.454 44.2235 148.621 43.8969 149.508 43.2905C150.395 42.6841 150.815 41.7977 150.815 40.7248C150.815 39.9318 150.582 39.3253 150.115 38.8588C149.648 38.3923 148.995 38.0658 148.154 37.7859C147.314 37.5527 146.147 37.2728 144.654 36.9929C143.113 36.713 141.806 36.3864 140.733 35.9199C139.659 35.4534 138.772 34.8004 138.072 33.914C137.372 33.0277 137.045 31.8615 137.045 30.3687C137.045 29.0159 137.419 27.8496 138.119 26.7767C138.819 25.7038 139.799 24.9107 141.059 24.3043C142.32 23.7445 143.767 23.418 145.4 23.418C147.081 23.418 148.575 23.7445 149.882 24.351C151.188 24.9574 152.262 25.8437 153.009 26.9167C153.756 28.0362 154.176 29.2491 154.269 30.6952H150.488C150.348 29.4824 149.835 28.5027 148.901 27.7563C147.968 27.01 146.801 26.6368 145.4 26.6368C144.047 26.6368 142.927 26.9167 142.133 27.5231C141.293 28.1295 140.919 28.9692 140.919 30.0421C140.919 30.7885 141.153 31.395 141.62 31.8615C142.086 32.328 142.74 32.6545 143.533 32.8877C144.327 33.121 145.494 33.3542 146.988 33.6341C148.528 33.914 149.835 34.2406 150.908 34.7071C151.982 35.1736 152.916 35.8266 153.616 36.6663C154.316 37.5527 154.643 38.6722 154.643 40.1184C154.643 41.5178 154.269 42.7307 153.522 43.8503C152.776 44.9699 151.749 45.8096 150.442 46.416C149.135 47.0224 147.641 47.349 145.961 47.349C144.094 47.349 142.46 47.0224 141.059 46.3227C139.659 45.6696 138.539 44.7366 137.745 43.5238C136.952 42.3109 136.532 40.958 136.532 39.4186L140.313 39.4653C140.453 41.0047 141.013 42.1243 142.04 42.964Z" fill="white"/>
<path d="M161.738 25.3772C161.738 25.9836 161.504 26.5434 161.084 26.9166C160.664 27.3364 160.151 27.523 159.497 27.523C158.844 27.523 158.33 27.3364 157.91 26.9166C157.49 26.4968 157.257 25.9836 157.257 25.3772C157.257 24.7707 157.49 24.211 157.91 23.8378C158.33 23.4646 158.844 23.2313 159.497 23.2313C160.151 23.2313 160.664 23.4179 161.084 23.8378C161.504 24.2576 161.738 24.7241 161.738 25.3772ZM161.318 30.0887V47.3023H157.677V30.0887H161.318Z" fill="white"/>
<path d="M181.622 46.5559C181.622 48.9816 180.922 50.8476 179.475 52.2004C178.028 53.5532 175.834 54.2063 172.8 54.2063C170.466 54.2063 168.599 53.6932 167.106 52.6669C165.659 51.6406 164.865 50.1478 164.678 48.2352H168.366C168.599 49.2149 169.113 49.9612 169.906 50.4744C170.7 50.9875 171.773 51.2674 173.034 51.2674C176.348 51.2674 177.981 49.6814 177.981 46.4626V44.5499C176.721 46.4159 174.854 47.3489 172.38 47.3489C170.793 47.3489 169.393 46.9757 168.179 46.276C166.966 45.5762 165.985 44.5499 165.285 43.2438C164.585 41.9376 164.258 40.3982 164.258 38.5789C164.258 36.8528 164.632 35.3134 165.332 34.0072C166.032 32.7011 167.012 31.6748 168.226 30.9284C169.44 30.182 170.84 29.8555 172.38 29.8555C173.687 29.8555 174.807 30.1354 175.741 30.6485C176.675 31.1616 177.421 31.8614 178.028 32.7477L178.448 30.0421H181.622V46.5559ZM178.028 38.6722C178.028 36.9928 177.561 35.5933 176.628 34.5204C175.694 33.4475 174.481 32.9343 172.987 32.9343C171.493 32.9343 170.28 33.4475 169.346 34.5204C168.413 35.5933 167.946 36.9461 167.946 38.6255C167.946 40.3049 168.413 41.6577 169.346 42.7306C170.28 43.8036 171.493 44.3167 172.987 44.3167C174.481 44.3167 175.694 43.8036 176.628 42.7773C177.561 41.6577 178.028 40.3049 178.028 38.6722Z" fill="white"/>
<path d="M201.18 37.7859V47.2557H197.539V38.0191C197.539 36.3864 197.166 35.1269 196.466 34.2872C195.765 33.4475 194.739 33.0277 193.385 33.0277C191.938 33.0277 190.818 33.5408 190.024 34.5205C189.231 35.5001 188.811 36.8996 188.811 38.5789V47.2557H185.17V23.7445H188.811V32.5612C190.117 30.7885 191.891 29.8555 194.225 29.8555C196.279 29.8555 197.959 30.462 199.266 31.7215C200.527 32.981 201.18 35.0336 201.18 37.7859Z" fill="white"/>
<path d="M202.581 33.2609V30.0888H205.568V25.2839H209.209V30.0888H213.363V33.2609H209.209V42.2176C209.209 42.8707 209.349 43.3838 209.629 43.6637C209.909 43.9436 210.376 44.0835 211.029 44.0835H213.783V47.2557H210.282C208.649 47.2557 207.435 46.8825 206.688 46.1361C205.941 45.3897 205.568 44.1768 205.568 42.5908V33.2609H202.581Z" fill="white"/>
</svg>
