<svg width="300" height="300" viewBox="0 0 363 356" fill="none" xmlns="http://www.w3.org/2000/svg">
<rect x="0.501465" width="361.997" height="355.395" rx="17" fill="#F5F5F5"/>
<path d="M210.995 209.99C210.149 209.934 209.304 209.877 208.401 209.877H201.859H186.067V204.034C197.798 201.255 206.596 190.704 206.596 177.998V176.75C209.811 176.75 212.405 171.475 212.405 168.242C212.405 167.334 212.18 166.427 211.785 165.689V140.05C211.785 133.3 205.468 118.155 179.863 118.155C157.755 118.155 148.618 133.3 148.618 140.05V165.009C147.998 165.916 147.66 167.051 147.66 168.242C147.66 171.475 150.254 176.75 153.469 176.75V177.998C153.469 190.534 162.098 201.085 173.716 203.921V209.82H158.206H151.326C150.48 209.82 149.577 209.877 148.731 209.934C136.436 211.181 126.792 221.335 126.792 233.644V253.44H179.863H199.603H215.564H232.878V233.644C232.878 221.392 223.29 211.238 210.995 209.99Z" fill="#E0F6FC"/>
<path d="M180.033 227.745H192.045L206.145 213.507L206.089 213.45H165.989L165.933 213.507L180.033 227.745Z" fill="#F8EFE9" stroke="#636363" stroke-width="3" stroke-miterlimit="10" stroke-linecap="round" stroke-linejoin="round"/>
<path d="M191.594 204.885H180.202V222.016H191.594V204.885Z" fill="#FAF0ED"/>
<path d="M180.202 204.885V222.016" stroke="#636363" stroke-width="3" stroke-miterlimit="10" stroke-linecap="round" stroke-linejoin="round"/>
<path d="M191.594 204.885V222.016" stroke="#636363" stroke-width="3" stroke-miterlimit="10" stroke-linecap="round" stroke-linejoin="round"/>
<path d="M210.432 169.944V183.103C213.364 183.103 215.733 178.282 215.733 175.276C215.733 172.326 213.364 169.944 210.432 169.944Z" fill="#FAF0ED" stroke="#636363" stroke-width="3" stroke-miterlimit="10" stroke-linecap="round" stroke-linejoin="round"/>
<path d="M156.345 175.276C156.345 178.225 158.714 183.103 161.647 183.103V169.944C158.714 169.944 156.345 172.326 156.345 175.276Z" fill="#FAF0ED" stroke="#636363" stroke-width="3" stroke-miterlimit="10" stroke-linecap="round" stroke-linejoin="round"/>
<path d="M161.647 151.679V169.887V183.047V184.181C161.647 197.738 172.588 208.686 186.011 208.686C199.49 208.686 210.375 197.681 210.375 184.181V183.047V169.887V151.679H161.647Z" fill="#FAF0ED" stroke="#636363" stroke-width="3" stroke-miterlimit="10" stroke-linecap="round" stroke-linejoin="round"/>
<path d="M175.182 194.788C175.182 194.788 183.078 196.547 185.729 196.547C188.492 196.547 196.67 194.788 196.67 194.788" stroke="#636363" stroke-width="3" stroke-miterlimit="10" stroke-linecap="round" stroke-linejoin="round"/>
<path d="M175.182 194.788C175.182 194.788 180.258 196.547 185.729 196.547C190.466 196.547 196.67 194.788 196.67 194.788" stroke="#636363" stroke-width="3" stroke-miterlimit="10" stroke-linecap="round" stroke-linejoin="round"/>
<path d="M185.898 177.601V182.763C188.38 182.763 190.41 184.465 190.41 186.564C190.41 188.662 188.38 190.364 185.898 190.364C183.417 190.364 181.386 188.662 181.386 186.564" stroke="#636363" stroke-width="3" stroke-miterlimit="10" stroke-linecap="round" stroke-linejoin="round"/>
<path d="M200.167 174.708C200.167 175.673 199.377 176.467 198.419 176.467C197.46 176.467 196.67 175.673 196.67 174.708C196.67 173.744 197.46 172.95 198.419 172.95C199.377 172.95 200.167 173.744 200.167 174.708Z" stroke="#636363" stroke-width="3" stroke-miterlimit="10" stroke-linecap="round" stroke-linejoin="round"/>
<path d="M195.429 168.128H201.351" stroke="#636363" stroke-width="3" stroke-miterlimit="10" stroke-linecap="round" stroke-linejoin="round"/>
<path d="M175.182 174.708C175.182 175.673 174.393 176.467 173.434 176.467C172.475 176.467 171.686 175.673 171.686 174.708C171.686 173.744 172.475 172.95 173.434 172.95C174.393 172.95 175.182 173.744 175.182 174.708Z" stroke="#636363" stroke-width="3" stroke-miterlimit="10" stroke-linecap="round" stroke-linejoin="round"/>
<path d="M170.445 168.128H176.367" stroke="#636363" stroke-width="3" stroke-miterlimit="10" stroke-linecap="round" stroke-linejoin="round"/>
<path d="M185.898 129.273C165.594 129.273 157.247 143.17 157.247 149.41V172.95L161.647 170.227V151.679C166.779 154.798 175.915 155.706 186.18 155.706C196.445 155.706 205.243 154.798 210.375 151.679V169.887L215.113 172.893V149.353C215.169 143.17 209.416 129.273 185.898 129.273Z" fill="#B4A199" stroke="#636363" stroke-width="3" stroke-miterlimit="10" stroke-linecap="round" stroke-linejoin="round"/>
<path d="M186.236 151.679C186.236 151.679 176.085 142.376 163 148.105Z" fill="#B4A199"/>
<path d="M186.236 151.679C186.236 151.679 176.085 142.376 163 148.105" stroke="#636363" stroke-width="3" stroke-miterlimit="10" stroke-linecap="round" stroke-linejoin="round"/>
<path d="M186.067 143.794C186.067 143.794 178.792 136.647 167.568 140.05Z" fill="#B4A199"/>
<path d="M186.067 143.794C186.067 143.794 178.792 136.647 167.568 140.05" stroke="#636363" stroke-width="3" stroke-miterlimit="10" stroke-linecap="round" stroke-linejoin="round"/>
<path d="M175.182 194.788C175.182 194.788 183.078 196.547 185.729 196.547C188.492 196.547 196.67 194.788 196.67 194.788" stroke="#636363" stroke-width="3" stroke-miterlimit="10" stroke-linecap="round" stroke-linejoin="round"/>
<path d="M212.124 213.45H206.089L206.145 213.507L191.989 227.745H180.033L165.877 213.507L165.933 213.45H159.673C158.883 213.45 158.094 213.507 157.304 213.564L185.898 253.497L214.492 213.564C213.703 213.507 212.913 213.45 212.124 213.45Z" fill="#FEFFFE" stroke="#636363" stroke-width="3" stroke-miterlimit="10" stroke-linecap="round" stroke-linejoin="round"/>
<path d="M137.226 235.345V253.554H185.898L157.304 213.62C146.024 214.698 137.226 224.001 137.226 235.345Z" fill="#C4C6D1" stroke="#636363" stroke-width="3" stroke-miterlimit="10" stroke-linecap="round" stroke-linejoin="round"/>
<path d="M214.492 213.564L185.898 253.497H234.57V235.289C234.57 224.001 225.772 214.698 214.492 213.564Z" fill="#C4C6D1" stroke="#636363" stroke-width="3" stroke-miterlimit="10" stroke-linecap="round" stroke-linejoin="round"/>
<path d="M189 236.31H182.514L179.92 227.745H191.876L189 236.31Z" fill="#9BB0EA" stroke="#636363" stroke-width="3" stroke-miterlimit="10" stroke-linecap="round" stroke-linejoin="round"/>
<path d="M179.92 245.329L182.514 236.31H189L191.876 244.988L185.785 253.497L179.92 245.329Z" fill="#9BB0EA" stroke="#636363" stroke-width="3" stroke-miterlimit="10" stroke-linecap="round" stroke-linejoin="round"/>
<path d="M218.609 248.449H204.002V253.554H218.609V248.449Z" fill="#A5A7B0" stroke="#636363" stroke-width="3" stroke-miterlimit="10" stroke-linecap="round" stroke-linejoin="round"/>
<path d="M157.36 213.564V228.993L185.898 253.497L157.36 213.564Z" fill="#A5A7B0" stroke="#636363" stroke-width="3" stroke-miterlimit="10" stroke-linecap="round" stroke-linejoin="round"/>
<path d="M214.492 213.564V228.993L185.898 253.497L214.492 213.564Z" fill="#A5A7B0" stroke="#636363" stroke-width="3" stroke-miterlimit="10" stroke-linecap="round" stroke-linejoin="round"/>
<path d="M250.813 161.889L246.301 166.427" stroke="#575756" stroke-width="3" stroke-miterlimit="10" stroke-linecap="round" stroke-linejoin="round"/>
<path d="M250.813 166.427L246.301 161.889" stroke="#575756" stroke-width="3" stroke-miterlimit="10" stroke-linecap="round" stroke-linejoin="round"/>
<path d="M111.677 154.401C111.677 154.401 107.391 152.87 107.617 150.147C107.899 146.177 111.677 148.616 111.677 148.616C111.677 148.616 115.456 146.177 115.738 150.147C115.964 152.813 111.677 154.401 111.677 154.401Z" fill="#575756"/>
<path d="M257.228 121.736C258.549 113.478 252.964 105.706 244.753 104.376C236.542 103.047 228.815 108.664 227.493 116.923C226.172 125.181 231.757 132.953 239.968 134.282C248.179 135.611 255.906 129.994 257.228 121.736Z" fill="#BBCCF2" stroke="#9BB0EA" stroke-width="3" stroke-miterlimit="10" stroke-linecap="round" stroke-linejoin="round"/>
<path d="M112.636 195.356C120.953 195.356 127.695 188.575 127.695 180.211C127.695 171.846 120.953 165.065 112.636 165.065C104.32 165.065 97.5776 171.846 97.5776 180.211C97.5776 188.575 104.32 195.356 112.636 195.356Z" fill="#BBEDF2" stroke="#9BE0EA" stroke-width="3" stroke-miterlimit="10"/>
<path d="M120.081 180.891C117.768 183.217 113.99 183.217 111.677 180.891C109.365 178.566 109.365 174.765 111.677 172.439C113.99 170.114 117.768 170.114 120.081 172.439C122.393 174.765 122.393 178.566 120.081 180.891Z" fill="#BBEDF2" stroke="#9BE0EA" stroke-width="3" stroke-miterlimit="10"/>
<path d="M111.677 180.891L104.571 188.038" stroke="#9BE0EA" stroke-width="3" stroke-miterlimit="10" stroke-linecap="round" stroke-linejoin="round"/>
<path d="M245.374 107.604L231.057 122.003L240.07 131.067L254.387 116.668L245.374 107.604Z" fill="#BBCCF2" stroke="#9BB0EA" stroke-width="3" stroke-miterlimit="10" stroke-linecap="round" stroke-linejoin="round"/>
<path d="M245.506 110.632L235.098 121.101L240.96 126.997L251.369 116.529L245.506 110.632Z" fill="#BBCCF2" stroke="#9BB0EA" stroke-width="3" stroke-miterlimit="10" stroke-linecap="round" stroke-linejoin="round"/>
<path d="M237.729 126.267C237.221 126.777 236.319 126.777 235.811 126.267C235.303 125.756 235.303 124.849 235.811 124.338C236.319 123.828 237.221 123.828 237.729 124.338C238.236 124.905 238.236 125.756 237.729 126.267Z" fill="#BBCCF2" stroke="#9BB0EA" stroke-width="3" stroke-miterlimit="10" stroke-linecap="round" stroke-linejoin="round"/>
<path d="M109.478 180.211L112.467 183.217" stroke="#9BE0EA" stroke-width="3" stroke-miterlimit="10" stroke-linecap="round" stroke-linejoin="round"/>
<path d="M242.917 185.769L240.718 182.536H236.77L239.195 179.416L237.954 175.673L241.676 176.977L244.835 174.652L244.722 178.566L247.88 180.891L244.158 182.026L242.917 185.769Z" fill="#FCEAC3" stroke="#F4D790" stroke-width="3" stroke-miterlimit="10" stroke-linecap="round" stroke-linejoin="round"/>
<path d="M244.271 139.256C244.271 139.256 247.034 164.158 219.512 164.158" stroke="#575756" stroke-width="3" stroke-miterlimit="10" stroke-linecap="round" stroke-linejoin="round" stroke-dasharray="9.4 9.4"/>
<path d="M128.484 194.788C128.484 194.788 136.267 206.076 156.345 198.475" stroke="#575756" stroke-width="3" stroke-miterlimit="10" stroke-linecap="round" stroke-linejoin="round" stroke-dasharray="9.4 9.4"/>
<path d="M230.397 185.429C230.397 185.429 219.061 193.427 225.152 204.091" stroke="#575756" stroke-width="3" stroke-miterlimit="10" stroke-linecap="round" stroke-linejoin="round"/>
<path d="M236.939 190.364C236.939 190.364 227.464 193.597 228.479 201.482" stroke="#575756" stroke-width="3" stroke-miterlimit="10" stroke-linecap="round" stroke-linejoin="round"/>
<path d="M210.432 114.865C212.768 114.865 214.661 112.961 214.661 110.611C214.661 108.262 212.768 106.357 210.432 106.357C208.095 106.357 206.202 108.262 206.202 110.611C206.202 112.961 208.095 114.865 210.432 114.865Z" stroke="#575756" stroke-width="3" stroke-miterlimit="10" stroke-linecap="round" stroke-linejoin="round"/>
<path d="M198.588 101.706C198.588 102.783 197.685 103.691 196.614 103.691C195.542 103.691 194.64 102.783 194.64 101.706C194.64 100.628 195.542 99.7202 196.614 99.7202C197.685 99.7202 198.588 100.628 198.588 101.706Z" stroke="#575756" stroke-width="3" stroke-miterlimit="10" stroke-linecap="round" stroke-linejoin="round"/>
<path d="M119.63 222.016C119.63 223.093 118.727 224.001 117.656 224.001C116.584 224.001 115.682 223.093 115.682 222.016C115.682 220.938 116.584 220.03 117.656 220.03C118.727 220.03 119.63 220.938 119.63 222.016Z" stroke="#575756" stroke-width="3" stroke-miterlimit="10" stroke-linecap="round" stroke-linejoin="round"/>
<path d="M139.482 112.483H121.829V137.214H139.482V112.483Z" stroke="#575756" stroke-width="3" stroke-miterlimit="10" stroke-linecap="round" stroke-linejoin="round"/>
<path d="M124.705 120.651H136.775" stroke="#575756" stroke-width="3" stroke-miterlimit="10" stroke-linecap="round" stroke-linejoin="round"/>
<path d="M124.705 124.338H136.775" stroke="#575756" stroke-width="3" stroke-miterlimit="10" stroke-linecap="round" stroke-linejoin="round"/>
<path d="M124.705 127.968H136.775" stroke="#575756" stroke-width="3" stroke-miterlimit="10" stroke-linecap="round" stroke-linejoin="round"/>
<path d="M124.705 131.599H136.775" stroke="#575756" stroke-width="3" stroke-miterlimit="10" stroke-linecap="round" stroke-linejoin="round"/>
<path d="M125.157 110.725V113.788" stroke="#575756" stroke-width="3" stroke-miterlimit="10" stroke-linecap="round" stroke-linejoin="round"/>
<path d="M135.816 110.725V113.788" stroke="#575756" stroke-width="3" stroke-miterlimit="10" stroke-linecap="round" stroke-linejoin="round"/>
<path d="M130.74 110.725V113.788" stroke="#575756" stroke-width="3" stroke-miterlimit="10" stroke-linecap="round" stroke-linejoin="round"/>
<path d="M263.785 204.148H241.958V219.179H263.785V204.148Z" stroke="#575756" stroke-width="2.5" stroke-miterlimit="10" stroke-linecap="round" stroke-linejoin="round"/>
<path d="M247.034 204.148C247.034 200.915 249.685 198.249 252.9 198.249C256.115 198.249 258.765 200.858 258.765 204.148" stroke="#575756" stroke-width="2.5" stroke-miterlimit="10" stroke-linecap="round" stroke-linejoin="round"/>
<path d="M256.453 210.217H249.29V213.167H256.453V210.217Z" stroke="#575756" stroke-width="2.5" stroke-miterlimit="10" stroke-linecap="round" stroke-linejoin="round"/>
<path d="M241.958 204.148L249.29 210.217" stroke="#575756" stroke-width="2.5" stroke-miterlimit="10" stroke-linecap="round" stroke-linejoin="round"/>
<path d="M263.785 204.148L256.453 210.217" stroke="#575756" stroke-width="2.5" stroke-miterlimit="10" stroke-linecap="round" stroke-linejoin="round"/>
<path d="M120.838 57.3361C120.838 58.2321 120.606 59.0561 120.142 59.8081C119.694 60.5601 119.022 61.1601 118.126 61.6081C117.246 62.0561 116.174 62.2801 114.91 62.2801C113.006 62.2801 111.438 61.8161 110.206 60.8881C108.974 59.9601 108.302 58.6641 108.19 57.0001H112.558C112.622 57.6401 112.846 58.1441 113.23 58.5121C113.63 58.8801 114.134 59.0641 114.742 59.0641C115.27 59.0641 115.686 58.9201 115.99 58.6321C116.294 58.3441 116.446 57.9601 116.446 57.4801C116.446 57.0481 116.302 56.6881 116.014 56.4001C115.742 56.1121 115.398 55.8801 114.982 55.7041C114.566 55.5121 113.99 55.2881 113.254 55.0321C112.182 54.6641 111.302 54.3121 110.614 53.9761C109.942 53.6241 109.358 53.1121 108.862 52.4401C108.382 51.7521 108.142 50.8641 108.142 49.7761C108.142 48.7681 108.398 47.8961 108.91 47.1601C109.422 46.4241 110.126 45.8641 111.022 45.4801C111.934 45.0801 112.974 44.8801 114.142 44.8801C116.03 44.8801 117.526 45.3281 118.63 46.2241C119.75 47.1201 120.382 48.3521 120.526 49.9201H116.086C116.006 49.3601 115.798 48.9201 115.462 48.6001C115.142 48.2641 114.702 48.0961 114.142 48.0961C113.662 48.0961 113.27 48.2241 112.966 48.4801C112.678 48.7361 112.534 49.1121 112.534 49.6081C112.534 50.0081 112.662 50.3521 112.918 50.6401C113.19 50.9121 113.526 51.1361 113.926 51.3121C114.326 51.4881 114.902 51.7121 115.654 51.9841C116.742 52.3521 117.63 52.7201 118.318 53.0881C119.006 53.4401 119.598 53.9601 120.094 54.6481C120.59 55.3361 120.838 56.2321 120.838 57.3361ZM131.459 48.5521C132.563 48.5521 133.547 48.8321 134.411 49.3921C135.291 49.9361 135.979 50.7281 136.475 51.7681C136.987 52.7921 137.243 54.0081 137.243 55.4161C137.243 56.8081 136.987 58.0241 136.475 59.0641C135.979 60.1041 135.291 60.9041 134.411 61.4641C133.547 62.0081 132.563 62.2801 131.459 62.2801C130.435 62.2801 129.555 62.0481 128.819 61.5841C128.083 61.1201 127.547 60.4881 127.211 59.6881V68.4961H123.107V48.7201H127.211V51.1441C127.547 50.3441 128.083 49.7121 128.819 49.2481C129.555 48.7841 130.435 48.5521 131.459 48.5521ZM130.139 52.1521C129.275 52.1521 128.563 52.4481 128.003 53.0401C127.459 53.6161 127.187 54.4081 127.187 55.4161C127.187 56.4081 127.459 57.2001 128.003 57.7921C128.563 58.3841 129.275 58.6801 130.139 58.6801C131.019 58.6801 131.723 58.3921 132.251 57.8161C132.795 57.2401 133.067 56.4401 133.067 55.4161C133.067 54.3921 132.795 53.5921 132.251 53.0161C131.723 52.4401 131.019 52.1521 130.139 52.1521ZM152.093 55.0561C152.093 55.3921 152.053 55.7601 151.973 56.1601H142.685C142.733 57.1681 142.989 57.8961 143.453 58.3441C143.917 58.7761 144.509 58.9921 145.229 58.9921C145.837 58.9921 146.341 58.8401 146.741 58.5361C147.141 58.2321 147.405 57.8401 147.533 57.3601H151.877C151.701 58.3041 151.317 59.1521 150.725 59.9041C150.133 60.6401 149.381 61.2241 148.469 61.6561C147.557 62.0721 146.541 62.2801 145.421 62.2801C144.109 62.2801 142.941 62.0081 141.917 61.4641C140.909 60.9041 140.117 60.1041 139.541 59.0641C138.965 58.0241 138.677 56.8081 138.677 55.4161C138.677 54.0081 138.957 52.7921 139.517 51.7681C140.093 50.7281 140.893 49.9361 141.917 49.3921C142.941 48.8321 144.109 48.5521 145.421 48.5521C146.749 48.5521 147.917 48.8241 148.925 49.3681C149.933 49.9121 150.709 50.6801 151.253 51.6721C151.813 52.6481 152.093 53.7761 152.093 55.0561ZM147.941 54.4321C147.957 53.5521 147.717 52.8961 147.221 52.4641C146.741 52.0161 146.141 51.7921 145.421 51.7921C144.669 51.7921 144.045 52.0161 143.549 52.4641C143.053 52.9121 142.773 53.5681 142.709 54.4321H147.941ZM160.28 48.5521C162.008 48.5521 163.456 49.0321 164.624 49.9921C165.792 50.9361 166.528 52.2401 166.832 53.9041H162.488C162.36 53.3281 162.096 52.8801 161.696 52.5601C161.296 52.2401 160.792 52.0801 160.184 52.0801C159.464 52.0801 158.872 52.3681 158.408 52.9441C157.944 53.5041 157.712 54.3281 157.712 55.4161C157.712 56.5041 157.944 57.3361 158.408 57.9121C158.872 58.4721 159.464 58.7521 160.184 58.7521C160.792 58.7521 161.296 58.5921 161.696 58.2721C162.096 57.9521 162.36 57.5041 162.488 56.9281H166.832C166.528 58.5921 165.792 59.9041 164.624 60.8641C163.456 61.8081 162.008 62.2801 160.28 62.2801C158.968 62.2801 157.8 62.0081 156.776 61.4641C155.768 60.9041 154.976 60.1041 154.4 59.0641C153.824 58.0241 153.536 56.8081 153.536 55.4161C153.536 54.0081 153.816 52.7921 154.376 51.7681C154.952 50.7281 155.752 49.9361 156.776 49.3921C157.8 48.8321 158.968 48.5521 160.28 48.5521ZM168.59 44.9521C168.59 44.3281 168.814 43.8161 169.262 43.4161C169.71 43.0001 170.302 42.7921 171.038 42.7921C171.774 42.7921 172.366 43.0001 172.814 43.4161C173.262 43.8161 173.486 44.3281 173.486 44.9521C173.486 45.5601 173.262 46.0721 172.814 46.4881C172.366 46.8881 171.774 47.0881 171.038 47.0881C170.302 47.0881 169.71 46.8881 169.262 46.4881C168.814 46.0721 168.59 45.5601 168.59 44.9521ZM173.078 48.7201V62.1121H168.974V48.7201H173.078ZM181 48.5521C182.024 48.5521 182.904 48.7841 183.64 49.2481C184.376 49.7121 184.92 50.3441 185.272 51.1441V48.7201H189.352V62.1121H185.272V59.6881C184.92 60.4881 184.376 61.1201 183.64 61.5841C182.904 62.0481 182.024 62.2801 181 62.2801C179.896 62.2801 178.904 62.0081 178.024 61.4641C177.16 60.9041 176.472 60.1041 175.96 59.0641C175.464 58.0241 175.216 56.8081 175.216 55.4161C175.216 54.0081 175.464 52.7921 175.96 51.7681C176.472 50.7281 177.16 49.9361 178.024 49.3921C178.904 48.8321 179.896 48.5521 181 48.5521ZM182.32 52.1521C181.44 52.1521 180.728 52.4401 180.184 53.0161C179.656 53.5921 179.392 54.3921 179.392 55.4161C179.392 56.4401 179.656 57.2401 180.184 57.8161C180.728 58.3921 181.44 58.6801 182.32 58.6801C183.184 58.6801 183.888 58.3841 184.432 57.7921C184.992 57.2001 185.272 56.4081 185.272 55.4161C185.272 54.4081 184.992 53.6161 184.432 53.0401C183.888 52.4481 183.184 52.1521 182.32 52.1521ZM196.281 44.3521V62.1121H192.177V44.3521H196.281ZM198.731 44.9521C198.731 44.3281 198.955 43.8161 199.403 43.4161C199.851 43.0001 200.443 42.7921 201.179 42.7921C201.915 42.7921 202.507 43.0001 202.955 43.4161C203.403 43.8161 203.627 44.3281 203.627 44.9521C203.627 45.5601 203.403 46.0721 202.955 46.4881C202.507 46.8881 201.915 47.0881 201.179 47.0881C200.443 47.0881 199.851 46.8881 199.403 46.4881C198.955 46.0721 198.731 45.5601 198.731 44.9521ZM203.219 48.7201V62.1121H199.115V48.7201H203.219ZM210.924 48.5521C212.62 48.5521 213.972 48.9761 214.98 49.8241C216.004 50.6721 216.644 51.7921 216.9 53.1841H213.06C212.948 52.6401 212.692 52.2161 212.292 51.9121C211.908 51.5921 211.42 51.4321 210.828 51.4321C210.364 51.4321 210.012 51.5361 209.772 51.7441C209.532 51.9361 209.412 52.2161 209.412 52.5841C209.412 53.0001 209.628 53.3121 210.06 53.5201C210.508 53.7281 211.204 53.9361 212.148 54.1441C213.172 54.3841 214.012 54.6321 214.668 54.8881C215.324 55.1281 215.892 55.5281 216.372 56.0881C216.852 56.6481 217.092 57.4001 217.092 58.3441C217.092 59.1121 216.884 59.7921 216.468 60.3841C216.052 60.9761 215.452 61.4401 214.668 61.7761C213.884 62.1121 212.956 62.2801 211.884 62.2801C210.076 62.2801 208.628 61.8801 207.54 61.0801C206.452 60.2801 205.788 59.1361 205.548 57.6481H209.508C209.572 58.2241 209.812 58.6641 210.228 58.9681C210.66 59.2721 211.212 59.4241 211.884 59.4241C212.348 59.4241 212.7 59.3201 212.94 59.1121C213.18 58.8881 213.3 58.6001 213.3 58.2481C213.3 57.7841 213.076 57.4561 212.628 57.2641C212.196 57.0561 211.484 56.8401 210.492 56.6161C209.5 56.4081 208.684 56.1841 208.044 55.9441C207.404 55.7041 206.852 55.3201 206.388 54.7921C205.924 54.2481 205.692 53.5121 205.692 52.5841C205.692 51.3841 206.148 50.4161 207.06 49.6801C207.972 48.9281 209.26 48.5521 210.924 48.5521ZM226.949 58.5841V62.1121H225.101C223.533 62.1121 222.309 61.7281 221.429 60.9601C220.565 60.1761 220.133 58.8881 220.133 57.0961V52.1761H218.333V48.7201H220.133V45.4321H224.237V48.7201H226.925V52.1761H224.237V57.1681C224.237 57.6961 224.341 58.0641 224.549 58.2721C224.773 58.4801 225.141 58.5841 225.653 58.5841H226.949ZM234.127 48.5521C235.823 48.5521 237.175 48.9761 238.183 49.8241C239.207 50.6721 239.847 51.7921 240.103 53.1841H236.263C236.151 52.6401 235.895 52.2161 235.495 51.9121C235.111 51.5921 234.623 51.4321 234.031 51.4321C233.567 51.4321 233.215 51.5361 232.975 51.7441C232.735 51.9361 232.615 52.2161 232.615 52.5841C232.615 53.0001 232.831 53.3121 233.263 53.5201C233.711 53.7281 234.407 53.9361 235.351 54.1441C236.375 54.3841 237.215 54.6321 237.871 54.8881C238.527 55.1281 239.095 55.5281 239.575 56.0881C240.055 56.6481 240.295 57.4001 240.295 58.3441C240.295 59.1121 240.087 59.7921 239.671 60.3841C239.255 60.9761 238.655 61.4401 237.871 61.7761C237.087 62.1121 236.159 62.2801 235.087 62.2801C233.279 62.2801 231.831 61.8801 230.743 61.0801C229.655 60.2801 228.991 59.1361 228.751 57.6481H232.711C232.775 58.2241 233.015 58.6641 233.431 58.9681C233.863 59.2721 234.415 59.4241 235.087 59.4241C235.551 59.4241 235.903 59.3201 236.143 59.1121C236.383 58.8881 236.503 58.6001 236.503 58.2481C236.503 57.7841 236.279 57.4561 235.831 57.2641C235.399 57.0561 234.687 56.8401 233.695 56.6161C232.703 56.4081 231.887 56.1841 231.247 55.9441C230.607 55.7041 230.055 55.3201 229.591 54.7921C229.127 54.2481 228.895 53.5121 228.895 52.5841C228.895 51.3841 229.351 50.4161 230.263 49.6801C231.175 48.9281 232.463 48.5521 234.127 48.5521Z" fill="#333333"/>
<path d="M68.0321 292.398L65.1681 303.678H63.3921L60.7841 294.462L58.1761 303.678H56.4001L53.5201 292.398H55.1361L57.2961 301.982L59.9681 292.398H61.5841L64.2561 301.95L66.4321 292.398H68.0321ZM77.8183 298.798C77.8183 299.108 77.7969 299.374 77.7543 299.598H70.7303C70.7623 300.601 71.0449 301.353 71.5783 301.854C72.1223 302.356 72.7836 302.606 73.5623 302.606C74.2663 302.606 74.8529 302.43 75.3223 302.078C75.8023 301.716 76.0956 301.236 76.2023 300.638H77.7543C77.6476 301.246 77.4076 301.79 77.0343 302.27C76.6716 302.75 76.1969 303.124 75.6103 303.39C75.0236 303.657 74.3623 303.79 73.6263 303.79C72.7836 303.79 72.0369 303.609 71.3863 303.246C70.7356 302.884 70.2236 302.366 69.8503 301.694C69.4876 301.012 69.3063 300.212 69.3063 299.294C69.3063 298.377 69.4876 297.577 69.8503 296.894C70.2236 296.212 70.7356 295.689 71.3863 295.326C72.0369 294.964 72.7836 294.782 73.6263 294.782C74.4796 294.782 75.2209 294.964 75.8503 295.326C76.4903 295.689 76.9756 296.174 77.3063 296.782C77.6476 297.39 77.8183 298.062 77.8183 298.798ZM76.3463 298.894C76.3783 298.244 76.2716 297.7 76.0263 297.262C75.7809 296.825 75.4449 296.5 75.0183 296.286C74.5916 296.073 74.1276 295.966 73.6263 295.966C72.8263 295.966 72.1543 296.217 71.6103 296.718C71.0663 297.209 70.7729 297.934 70.7303 298.894H76.3463ZM87.2758 294.782C88.1291 294.782 88.8491 294.996 89.4358 295.422C90.0331 295.849 90.4491 296.42 90.6838 297.134V294.894H92.1398V303.678H90.6838V301.438C90.4491 302.153 90.0331 302.724 89.4358 303.15C88.8491 303.577 88.1291 303.79 87.2758 303.79C86.4971 303.79 85.8038 303.609 85.1958 303.246C84.5878 302.884 84.1078 302.366 83.7558 301.694C83.4144 301.012 83.2438 300.212 83.2438 299.294C83.2438 298.377 83.4144 297.577 83.7558 296.894C84.1078 296.212 84.5878 295.689 85.1958 295.326C85.8038 294.964 86.4971 294.782 87.2758 294.782ZM87.6918 296.078C86.7958 296.078 86.0758 296.366 85.5318 296.942C84.9984 297.508 84.7318 298.292 84.7318 299.294C84.7318 300.297 84.9984 301.086 85.5318 301.662C86.0758 302.228 86.7958 302.51 87.6918 302.51C88.2678 302.51 88.7798 302.377 89.2278 302.11C89.6864 301.844 90.0438 301.47 90.2998 300.99C90.5558 300.5 90.6838 299.934 90.6838 299.294C90.6838 298.654 90.5558 298.089 90.2998 297.598C90.0438 297.108 89.6864 296.734 89.2278 296.478C88.7798 296.212 88.2678 296.078 87.6918 296.078ZM98.057 294.782C98.9104 294.782 99.6304 294.996 100.217 295.422C100.814 295.849 101.23 296.42 101.465 297.134V291.838H102.921V303.678H101.465V301.438C101.23 302.153 100.814 302.724 100.217 303.15C99.6304 303.577 98.9104 303.79 98.057 303.79C97.2784 303.79 96.585 303.609 95.977 303.246C95.369 302.884 94.889 302.366 94.537 301.694C94.1957 301.012 94.025 300.212 94.025 299.294C94.025 298.377 94.1957 297.577 94.537 296.894C94.889 296.212 95.369 295.689 95.977 295.326C96.585 294.964 97.2784 294.782 98.057 294.782ZM98.473 296.078C97.577 296.078 96.857 296.366 96.313 296.942C95.7797 297.508 95.513 298.292 95.513 299.294C95.513 300.297 95.7797 301.086 96.313 301.662C96.857 302.228 97.577 302.51 98.473 302.51C99.049 302.51 99.561 302.377 100.009 302.11C100.468 301.844 100.825 301.47 101.081 300.99C101.337 300.5 101.465 299.934 101.465 299.294C101.465 298.654 101.337 298.089 101.081 297.598C100.825 297.108 100.468 296.734 100.009 296.478C99.561 296.212 99.049 296.078 98.473 296.078ZM108.838 294.782C109.692 294.782 110.412 294.996 110.998 295.422C111.596 295.849 112.012 296.42 112.246 297.134V294.894H113.702V303.678H112.246V301.438C112.012 302.153 111.596 302.724 110.998 303.15C110.412 303.577 109.692 303.79 108.838 303.79C108.06 303.79 107.366 303.609 106.758 303.246C106.15 302.884 105.67 302.366 105.318 301.694C104.977 301.012 104.806 300.212 104.806 299.294C104.806 298.377 104.977 297.577 105.318 296.894C105.67 296.212 106.15 295.689 106.758 295.326C107.366 294.964 108.06 294.782 108.838 294.782ZM109.254 296.078C108.358 296.078 107.638 296.366 107.094 296.942C106.561 297.508 106.294 298.292 106.294 299.294C106.294 300.297 106.561 301.086 107.094 301.662C107.638 302.228 108.358 302.51 109.254 302.51C109.83 302.51 110.342 302.377 110.79 302.11C111.249 301.844 111.606 301.47 111.862 300.99C112.118 300.5 112.246 299.934 112.246 299.294C112.246 298.654 112.118 298.089 111.862 297.598C111.606 297.108 111.249 296.734 110.79 296.478C110.342 296.212 109.83 296.078 109.254 296.078ZM120.868 294.782C121.646 294.782 122.34 294.964 122.948 295.326C123.556 295.689 124.03 296.212 124.372 296.894C124.724 297.577 124.9 298.377 124.9 299.294C124.9 300.212 124.724 301.012 124.372 301.694C124.03 302.366 123.556 302.884 122.948 303.246C122.34 303.609 121.646 303.79 120.868 303.79C120.014 303.79 119.289 303.577 118.692 303.15C118.105 302.713 117.7 302.142 117.476 301.438V307.838H116.02V294.894H117.476V297.134C117.7 296.43 118.105 295.865 118.692 295.438C119.289 295.001 120.014 294.782 120.868 294.782ZM120.452 296.078C119.886 296.078 119.374 296.212 118.916 296.478C118.457 296.734 118.1 297.108 117.844 297.598C117.588 298.089 117.46 298.654 117.46 299.294C117.46 299.934 117.588 300.5 117.844 300.99C118.1 301.47 118.457 301.844 118.916 302.11C119.374 302.377 119.886 302.51 120.452 302.51C121.358 302.51 122.078 302.228 122.612 301.662C123.156 301.086 123.428 300.297 123.428 299.294C123.428 298.292 123.156 297.508 122.612 296.942C122.078 296.366 121.358 296.078 120.452 296.078ZM130.993 302.398V303.678H129.905C129.009 303.678 128.337 303.465 127.889 303.038C127.451 302.612 127.233 301.897 127.233 300.894V296.158H125.921V294.894H127.233V292.702H128.705V294.894H130.977V296.158H128.705V300.926C128.705 301.492 128.806 301.881 129.009 302.094C129.222 302.297 129.585 302.398 130.097 302.398H130.993ZM140.915 302.398V303.678H139.827C138.931 303.678 138.259 303.465 137.811 303.038C137.373 302.612 137.155 301.897 137.155 300.894V296.158H135.843V294.894H137.155V292.702H138.627V294.894H140.899V296.158H138.627V300.926C138.627 301.492 138.728 301.881 138.931 302.094C139.144 302.297 139.507 302.398 140.019 302.398H140.915ZM146.675 294.782C147.518 294.782 148.27 294.964 148.931 295.326C149.603 295.689 150.126 296.212 150.499 296.894C150.883 297.577 151.075 298.377 151.075 299.294C151.075 300.212 150.883 301.012 150.499 301.694C150.126 302.366 149.603 302.884 148.931 303.246C148.27 303.609 147.518 303.79 146.675 303.79C145.833 303.79 145.075 303.609 144.403 303.246C143.742 302.884 143.219 302.366 142.835 301.694C142.451 301.012 142.259 300.212 142.259 299.294C142.259 298.377 142.451 297.577 142.835 296.894C143.219 296.212 143.742 295.689 144.403 295.326C145.075 294.964 145.833 294.782 146.675 294.782ZM146.675 296.062C146.153 296.062 145.667 296.18 145.219 296.414C144.782 296.649 144.425 297.012 144.147 297.502C143.881 297.982 143.747 298.58 143.747 299.294C143.747 299.998 143.881 300.596 144.147 301.086C144.425 301.566 144.782 301.924 145.219 302.158C145.667 302.393 146.153 302.51 146.675 302.51C147.198 302.51 147.678 302.393 148.115 302.158C148.563 301.924 148.921 301.566 149.187 301.086C149.465 300.596 149.603 299.998 149.603 299.294C149.603 298.58 149.465 297.982 149.187 297.502C148.921 297.012 148.563 296.649 148.115 296.414C147.678 296.18 147.198 296.062 146.675 296.062ZM157.534 294.894L160.382 301.806L163.022 294.894H164.638L159.422 307.838H157.774L159.598 303.534L155.902 294.894H157.534ZM169.957 294.782C170.799 294.782 171.551 294.964 172.213 295.326C172.885 295.689 173.407 296.212 173.781 296.894C174.165 297.577 174.357 298.377 174.357 299.294C174.357 300.212 174.165 301.012 173.781 301.694C173.407 302.366 172.885 302.884 172.213 303.246C171.551 303.609 170.799 303.79 169.957 303.79C169.114 303.79 168.357 303.609 167.685 303.246C167.023 302.884 166.501 302.366 166.117 301.694C165.733 301.012 165.541 300.212 165.541 299.294C165.541 298.377 165.733 297.577 166.117 296.894C166.501 296.212 167.023 295.689 167.685 295.326C168.357 294.964 169.114 294.782 169.957 294.782ZM169.957 296.062C169.434 296.062 168.949 296.18 168.501 296.414C168.063 296.649 167.706 297.012 167.429 297.502C167.162 297.982 167.029 298.58 167.029 299.294C167.029 299.998 167.162 300.596 167.429 301.086C167.706 301.566 168.063 301.924 168.501 302.158C168.949 302.393 169.434 302.51 169.957 302.51C170.479 302.51 170.959 302.393 171.397 302.158C171.845 301.924 172.202 301.566 172.469 301.086C172.746 300.596 172.885 299.998 172.885 299.294C172.885 298.58 172.746 297.982 172.469 297.502C172.202 297.012 171.845 296.649 171.397 296.414C170.959 296.18 170.479 296.062 169.957 296.062ZM184.062 294.894V303.678H182.606V301.614C182.382 302.329 181.982 302.878 181.406 303.262C180.841 303.636 180.179 303.822 179.422 303.822C178.409 303.822 177.587 303.497 176.958 302.846C176.329 302.185 176.014 301.241 176.014 300.014V294.894H177.47V299.87C177.47 300.745 177.694 301.422 178.142 301.902C178.59 302.372 179.198 302.606 179.966 302.606C180.766 302.606 181.406 302.35 181.886 301.838C182.366 301.316 182.606 300.558 182.606 299.566V294.894H184.062ZM187.851 296.67C188.139 296.062 188.56 295.593 189.115 295.262C189.669 294.921 190.331 294.75 191.099 294.75V296.334H190.651C189.829 296.334 189.157 296.548 188.635 296.974C188.112 297.39 187.851 298.084 187.851 299.054V303.678H186.395V294.894H187.851V296.67ZM197.944 296.67C198.232 296.062 198.654 295.593 199.208 295.262C199.763 294.921 200.424 294.75 201.192 294.75V296.334H200.744C199.923 296.334 199.251 296.548 198.728 296.974C198.206 297.39 197.944 298.084 197.944 299.054V303.678H196.488V294.894H197.944V296.67ZM210.709 298.798C210.709 299.108 210.688 299.374 210.645 299.598H203.621C203.653 300.601 203.936 301.353 204.469 301.854C205.013 302.356 205.674 302.606 206.453 302.606C207.157 302.606 207.744 302.43 208.213 302.078C208.693 301.716 208.986 301.236 209.093 300.638H210.645C210.538 301.246 210.298 301.79 209.925 302.27C209.562 302.75 209.088 303.124 208.501 303.39C207.914 303.657 207.253 303.79 206.517 303.79C205.674 303.79 204.928 303.609 204.277 303.246C203.626 302.884 203.114 302.366 202.741 301.694C202.378 301.012 202.197 300.212 202.197 299.294C202.197 298.377 202.378 297.577 202.741 296.894C203.114 296.212 203.626 295.689 204.277 295.326C204.928 294.964 205.674 294.782 206.517 294.782C207.37 294.782 208.112 294.964 208.741 295.326C209.381 295.689 209.866 296.174 210.197 296.782C210.538 297.39 210.709 298.062 210.709 298.798ZM209.237 298.894C209.269 298.244 209.162 297.7 208.917 297.262C208.672 296.825 208.336 296.5 207.909 296.286C207.482 296.073 207.018 295.966 206.517 295.966C205.717 295.966 205.045 296.217 204.501 296.718C203.957 297.209 203.664 297.934 203.621 298.894H209.237ZM216.309 294.814C217.12 294.814 217.808 295.012 218.373 295.406C218.949 295.79 219.365 296.313 219.621 296.974V294.894H221.077V307.838H219.621V301.534C219.355 302.228 218.933 302.777 218.357 303.182C217.792 303.588 217.109 303.79 216.309 303.79C215.531 303.79 214.827 303.609 214.197 303.246C213.568 302.873 213.072 302.35 212.709 301.678C212.357 300.996 212.181 300.206 212.181 299.31C212.181 298.414 212.357 297.63 212.709 296.958C213.072 296.276 213.568 295.748 214.197 295.374C214.827 295.001 215.531 294.814 216.309 294.814ZM216.629 296.078C215.755 296.078 215.04 296.366 214.485 296.942C213.941 297.508 213.669 298.297 213.669 299.31C213.669 300.324 213.941 301.113 214.485 301.678C215.029 302.233 215.744 302.51 216.629 302.51C217.184 302.51 217.685 302.382 218.133 302.126C218.592 301.86 218.955 301.486 219.221 301.006C219.488 300.516 219.621 299.945 219.621 299.294C219.621 298.644 219.488 298.078 219.221 297.598C218.955 297.108 218.592 296.734 218.133 296.478C217.685 296.212 217.184 296.078 216.629 296.078ZM231.203 294.894V303.678H229.747V301.614C229.523 302.329 229.123 302.878 228.547 303.262C227.981 303.636 227.32 303.822 226.563 303.822C225.549 303.822 224.728 303.497 224.099 302.846C223.469 302.185 223.155 301.241 223.155 300.014V294.894H224.611V299.87C224.611 300.745 224.835 301.422 225.283 301.902C225.731 302.372 226.339 302.606 227.107 302.606C227.907 302.606 228.547 302.35 229.027 301.838C229.507 301.316 229.747 300.558 229.747 299.566V294.894H231.203ZM233.279 292.318C233.279 292.052 233.37 291.838 233.551 291.678C233.732 291.508 233.972 291.422 234.271 291.422C234.57 291.422 234.81 291.508 234.991 291.678C235.172 291.838 235.263 292.052 235.263 292.318C235.263 292.585 235.172 292.804 234.991 292.974C234.81 293.134 234.57 293.214 234.271 293.214C233.972 293.214 233.732 293.134 233.551 292.974C233.37 292.804 233.279 292.585 233.279 292.318ZM234.991 294.894V303.678H233.535V294.894H234.991ZM238.788 296.67C239.076 296.062 239.497 295.593 240.052 295.262C240.607 294.921 241.268 294.75 242.036 294.75V296.334H241.588C240.767 296.334 240.095 296.548 239.572 296.974C239.049 297.39 238.788 298.084 238.788 299.054V303.678H237.332V294.894H238.788V296.67ZM251.553 298.798C251.553 299.108 251.531 299.374 251.489 299.598H244.465C244.497 300.601 244.779 301.353 245.313 301.854C245.857 302.356 246.518 302.606 247.297 302.606C248.001 302.606 248.587 302.43 249.057 302.078C249.537 301.716 249.83 301.236 249.937 300.638H251.489C251.382 301.246 251.142 301.79 250.769 302.27C250.406 302.75 249.931 303.124 249.345 303.39C248.758 303.657 248.097 303.79 247.361 303.79C246.518 303.79 245.771 303.609 245.121 303.246C244.47 302.884 243.958 302.366 243.585 301.694C243.222 301.012 243.041 300.212 243.041 299.294C243.041 298.377 243.222 297.577 243.585 296.894C243.958 296.212 244.47 295.689 245.121 295.326C245.771 294.964 246.518 294.782 247.361 294.782C248.214 294.782 248.955 294.964 249.585 295.326C250.225 295.689 250.71 296.174 251.041 296.782C251.382 297.39 251.553 298.062 251.553 298.798ZM250.081 298.894C250.113 298.244 250.006 297.7 249.761 297.262C249.515 296.825 249.179 296.5 248.753 296.286C248.326 296.073 247.862 295.966 247.361 295.966C246.561 295.966 245.889 296.217 245.345 296.718C244.801 297.209 244.507 297.934 244.465 298.894H250.081ZM264.257 294.75C265.281 294.75 266.102 295.081 266.721 295.742C267.35 296.393 267.665 297.337 267.665 298.574V303.678H266.209V298.702C266.209 297.838 265.996 297.177 265.569 296.718C265.153 296.26 264.577 296.03 263.841 296.03C263.073 296.03 262.454 296.286 261.985 296.798C261.526 297.3 261.297 298.041 261.297 299.022V303.678H259.841V298.702C259.841 297.838 259.628 297.177 259.201 296.718C258.774 296.26 258.198 296.03 257.473 296.03C256.694 296.03 256.07 296.286 255.601 296.798C255.142 297.3 254.913 298.041 254.913 299.022V303.678H253.457V294.894H254.913V296.894C255.126 296.201 255.505 295.673 256.049 295.31C256.604 294.937 257.238 294.75 257.953 294.75C258.7 294.75 259.345 294.942 259.889 295.326C260.444 295.7 260.838 296.254 261.073 296.99C261.318 296.276 261.729 295.726 262.305 295.342C262.881 294.948 263.532 294.75 264.257 294.75ZM278.006 298.798C278.006 299.108 277.984 299.374 277.942 299.598H270.918C270.95 300.601 271.232 301.353 271.766 301.854C272.31 302.356 272.971 302.606 273.75 302.606C274.454 302.606 275.04 302.43 275.51 302.078C275.99 301.716 276.283 301.236 276.39 300.638H277.942C277.835 301.246 277.595 301.79 277.222 302.27C276.859 302.75 276.384 303.124 275.798 303.39C275.211 303.657 274.55 303.79 273.814 303.79C272.971 303.79 272.224 303.609 271.574 303.246C270.923 302.884 270.411 302.366 270.038 301.694C269.675 301.012 269.494 300.212 269.494 299.294C269.494 298.377 269.675 297.577 270.038 296.894C270.411 296.212 270.923 295.689 271.574 295.326C272.224 294.964 272.971 294.782 273.814 294.782C274.667 294.782 275.408 294.964 276.038 295.326C276.678 295.689 277.163 296.174 277.494 296.782C277.835 297.39 278.006 298.062 278.006 298.798ZM276.534 298.894C276.566 298.244 276.459 297.7 276.214 297.262C275.968 296.825 275.632 296.5 275.206 296.286C274.779 296.073 274.315 295.966 273.814 295.966C273.014 295.966 272.342 296.217 271.798 296.718C271.254 297.209 270.96 297.934 270.918 298.894H276.534ZM284.534 294.75C285.558 294.75 286.385 295.081 287.014 295.742C287.643 296.393 287.958 297.337 287.958 298.574V303.678H286.502V298.702C286.502 297.828 286.278 297.156 285.83 296.686C285.382 296.217 284.774 295.982 284.006 295.982C283.206 295.982 282.566 296.244 282.086 296.766C281.606 297.278 281.366 298.03 281.366 299.022V303.678H279.91V294.894H281.366V296.974C281.59 296.26 281.985 295.71 282.55 295.326C283.126 294.942 283.787 294.75 284.534 294.75ZM294.383 302.398V303.678H293.295C292.399 303.678 291.727 303.465 291.279 303.038C290.842 302.612 290.623 301.897 290.623 300.894V296.158H289.311V294.894H290.623V292.702H292.095V294.894H294.367V296.158H292.095V300.926C292.095 301.492 292.197 301.881 292.399 302.094C292.613 302.297 292.975 302.398 293.487 302.398H294.383ZM298.912 294.782C299.904 294.782 300.699 295.044 301.296 295.566C301.904 296.078 302.272 296.772 302.4 297.646H301.008C300.944 297.124 300.725 296.697 300.352 296.366C299.989 296.025 299.499 295.854 298.88 295.854C298.357 295.854 297.947 295.982 297.648 296.238C297.36 296.484 297.216 296.82 297.216 297.246C297.216 297.566 297.312 297.828 297.504 298.03C297.707 298.222 297.952 298.372 298.24 298.478C298.539 298.574 298.944 298.681 299.456 298.798C300.107 298.948 300.629 299.102 301.024 299.262C301.429 299.412 301.771 299.657 302.048 299.998C302.336 300.34 302.48 300.798 302.48 301.374C302.48 302.089 302.208 302.67 301.664 303.118C301.131 303.566 300.416 303.79 299.52 303.79C298.475 303.79 297.621 303.54 296.96 303.038C296.299 302.537 295.909 301.838 295.792 300.942H297.2C297.253 301.476 297.483 301.908 297.888 302.238C298.304 302.569 298.848 302.734 299.52 302.734C300.021 302.734 300.411 302.606 300.688 302.35C300.976 302.094 301.12 301.758 301.12 301.342C301.12 301.001 301.019 300.729 300.816 300.526C300.613 300.324 300.363 300.169 300.064 300.062C299.765 299.956 299.355 299.844 298.832 299.726C298.181 299.577 297.659 299.428 297.264 299.278C296.88 299.129 296.549 298.894 296.272 298.574C296.005 298.244 295.872 297.801 295.872 297.246C295.872 296.51 296.144 295.918 296.688 295.47C297.232 295.012 297.973 294.782 298.912 294.782ZM305.274 302.606C305.423 303.076 305.498 303.513 305.498 303.918C305.498 304.473 305.359 304.916 305.082 305.246C304.804 305.588 304.388 305.758 303.834 305.758V305.134C304.1 305.134 304.292 305.06 304.41 304.91C304.538 304.772 304.602 304.548 304.602 304.238V304.094H303.786V302.606H305.274ZM136.599 318.894L134.071 327.678H132.503L130.087 320.526L127.655 327.678H126.071L123.575 318.894H125.047L126.919 326.286L129.351 318.894H130.871L133.319 326.27L135.207 318.894H136.599ZM146.037 322.798C146.037 323.108 146.016 323.374 145.973 323.598H138.949C138.981 324.601 139.264 325.353 139.797 325.854C140.341 326.356 141.002 326.606 141.781 326.606C142.485 326.606 143.072 326.43 143.541 326.078C144.021 325.716 144.314 325.236 144.421 324.638H145.973C145.866 325.246 145.626 325.79 145.253 326.27C144.89 326.75 144.416 327.124 143.829 327.39C143.242 327.657 142.581 327.79 141.845 327.79C141.002 327.79 140.256 327.609 139.605 327.246C138.954 326.884 138.442 326.366 138.069 325.694C137.706 325.012 137.525 324.212 137.525 323.294C137.525 322.377 137.706 321.577 138.069 320.894C138.442 320.212 138.954 319.689 139.605 319.326C140.256 318.964 141.002 318.782 141.845 318.782C142.698 318.782 143.44 318.964 144.069 319.326C144.709 319.689 145.194 320.174 145.525 320.782C145.866 321.39 146.037 322.062 146.037 322.798ZM144.565 322.894C144.597 322.244 144.49 321.7 144.245 321.262C144 320.825 143.664 320.5 143.237 320.286C142.81 320.073 142.346 319.966 141.845 319.966C141.045 319.966 140.373 320.217 139.829 320.718C139.285 321.209 138.992 321.934 138.949 322.894H144.565ZM155.495 318.782C156.348 318.782 157.068 318.996 157.655 319.422C158.252 319.849 158.668 320.42 158.903 321.134V318.894H160.359V327.822C160.359 328.633 160.188 329.353 159.847 329.982C159.505 330.612 159.025 331.102 158.407 331.454C157.788 331.806 157.068 331.982 156.247 331.982C155.063 331.982 154.097 331.694 153.351 331.118C152.604 330.553 152.129 329.785 151.927 328.814H153.367C153.537 329.401 153.857 329.86 154.327 330.19C154.807 330.532 155.42 330.702 156.167 330.702C156.956 330.702 157.607 330.446 158.119 329.934C158.641 329.433 158.903 328.729 158.903 327.822V325.438C158.668 326.153 158.252 326.724 157.655 327.15C157.068 327.577 156.348 327.79 155.495 327.79C154.716 327.79 154.023 327.609 153.415 327.246C152.807 326.884 152.327 326.366 151.975 325.694C151.633 325.012 151.463 324.212 151.463 323.294C151.463 322.377 151.633 321.577 151.975 320.894C152.327 320.212 152.807 319.689 153.415 319.326C154.023 318.964 154.716 318.782 155.495 318.782ZM155.911 320.078C155.015 320.078 154.295 320.366 153.751 320.942C153.217 321.508 152.951 322.292 152.951 323.294C152.951 324.297 153.217 325.086 153.751 325.662C154.295 326.228 155.015 326.51 155.911 326.51C156.487 326.51 156.999 326.377 157.447 326.11C157.905 325.844 158.263 325.47 158.519 324.99C158.775 324.5 158.903 323.934 158.903 323.294C158.903 322.654 158.775 322.089 158.519 321.598C158.263 321.108 157.905 320.734 157.447 320.478C156.999 320.212 156.487 320.078 155.911 320.078ZM166.66 318.782C167.502 318.782 168.254 318.964 168.916 319.326C169.588 319.689 170.11 320.212 170.484 320.894C170.868 321.577 171.06 322.377 171.06 323.294C171.06 324.212 170.868 325.012 170.484 325.694C170.11 326.366 169.588 326.884 168.916 327.246C168.254 327.609 167.502 327.79 166.66 327.79C165.817 327.79 165.06 327.609 164.388 327.246C163.726 326.884 163.204 326.366 162.82 325.694C162.436 325.012 162.244 324.212 162.244 323.294C162.244 322.377 162.436 321.577 162.82 320.894C163.204 320.212 163.726 319.689 164.388 319.326C165.06 318.964 165.817 318.782 166.66 318.782ZM166.66 320.062C166.137 320.062 165.652 320.18 165.204 320.414C164.766 320.649 164.409 321.012 164.132 321.502C163.865 321.982 163.732 322.58 163.732 323.294C163.732 323.998 163.865 324.596 164.132 325.086C164.409 325.566 164.766 325.924 165.204 326.158C165.652 326.393 166.137 326.51 166.66 326.51C167.182 326.51 167.662 326.393 168.1 326.158C168.548 325.924 168.905 325.566 169.172 325.086C169.449 324.596 169.588 323.998 169.588 323.294C169.588 322.58 169.449 321.982 169.172 321.502C168.905 321.012 168.548 320.649 168.1 320.414C167.662 320.18 167.182 320.062 166.66 320.062ZM181.758 318.782C182.537 318.782 183.23 318.964 183.838 319.326C184.446 319.689 184.921 320.212 185.262 320.894C185.614 321.577 185.79 322.377 185.79 323.294C185.79 324.212 185.614 325.012 185.262 325.694C184.921 326.366 184.446 326.884 183.838 327.246C183.23 327.609 182.537 327.79 181.758 327.79C180.905 327.79 180.179 327.577 179.582 327.15C178.995 326.713 178.59 326.142 178.366 325.438V327.678H176.91V315.838H178.366V321.134C178.59 320.43 178.995 319.865 179.582 319.438C180.179 319.001 180.905 318.782 181.758 318.782ZM181.342 320.078C180.777 320.078 180.265 320.212 179.806 320.478C179.347 320.734 178.99 321.108 178.734 321.598C178.478 322.089 178.35 322.654 178.35 323.294C178.35 323.934 178.478 324.5 178.734 324.99C178.99 325.47 179.347 325.844 179.806 326.11C180.265 326.377 180.777 326.51 181.342 326.51C182.249 326.51 182.969 326.228 183.502 325.662C184.046 325.086 184.318 324.297 184.318 323.294C184.318 322.292 184.046 321.508 183.502 320.942C182.969 320.366 182.249 320.078 181.342 320.078ZM195.771 322.798C195.771 323.108 195.75 323.374 195.707 323.598H188.683C188.715 324.601 188.998 325.353 189.531 325.854C190.075 326.356 190.737 326.606 191.515 326.606C192.219 326.606 192.806 326.43 193.275 326.078C193.755 325.716 194.049 325.236 194.155 324.638H195.707C195.601 325.246 195.361 325.79 194.987 326.27C194.625 326.75 194.15 327.124 193.563 327.39C192.977 327.657 192.315 327.79 191.579 327.79C190.737 327.79 189.99 327.609 189.339 327.246C188.689 326.884 188.177 326.366 187.803 325.694C187.441 325.012 187.259 324.212 187.259 323.294C187.259 322.377 187.441 321.577 187.803 320.894C188.177 320.212 188.689 319.689 189.339 319.326C189.99 318.964 190.737 318.782 191.579 318.782C192.433 318.782 193.174 318.964 193.803 319.326C194.443 319.689 194.929 320.174 195.259 320.782C195.601 321.39 195.771 322.062 195.771 322.798ZM194.299 322.894C194.331 322.244 194.225 321.7 193.979 321.262C193.734 320.825 193.398 320.5 192.971 320.286C192.545 320.073 192.081 319.966 191.579 319.966C190.779 319.966 190.107 320.217 189.563 320.718C189.019 321.209 188.726 321.934 188.683 322.894H194.299ZM198.284 318.894L201.132 325.806L203.772 318.894H205.388L200.172 331.838H198.524L200.348 327.534L196.652 318.894H198.284ZM210.707 318.782C211.549 318.782 212.301 318.964 212.963 319.326C213.635 319.689 214.157 320.212 214.531 320.894C214.915 321.577 215.107 322.377 215.107 323.294C215.107 324.212 214.915 325.012 214.531 325.694C214.157 326.366 213.635 326.884 212.963 327.246C212.301 327.609 211.549 327.79 210.707 327.79C209.864 327.79 209.107 327.609 208.435 327.246C207.773 326.884 207.251 326.366 206.867 325.694C206.483 325.012 206.291 324.212 206.291 323.294C206.291 322.377 206.483 321.577 206.867 320.894C207.251 320.212 207.773 319.689 208.435 319.326C209.107 318.964 209.864 318.782 210.707 318.782ZM210.707 320.062C210.184 320.062 209.699 320.18 209.251 320.414C208.813 320.649 208.456 321.012 208.179 321.502C207.912 321.982 207.779 322.58 207.779 323.294C207.779 323.998 207.912 324.596 208.179 325.086C208.456 325.566 208.813 325.924 209.251 326.158C209.699 326.393 210.184 326.51 210.707 326.51C211.229 326.51 211.709 326.393 212.147 326.158C212.595 325.924 212.952 325.566 213.219 325.086C213.496 324.596 213.635 323.998 213.635 323.294C213.635 322.58 213.496 321.982 213.219 321.502C212.952 321.012 212.595 320.649 212.147 320.414C211.709 320.18 211.229 320.062 210.707 320.062ZM221.628 318.75C222.652 318.75 223.479 319.081 224.108 319.742C224.737 320.393 225.052 321.337 225.052 322.574V327.678H223.596V322.702C223.596 321.828 223.372 321.156 222.924 320.686C222.476 320.217 221.868 319.982 221.1 319.982C220.3 319.982 219.66 320.244 219.18 320.766C218.7 321.278 218.46 322.03 218.46 323.022V327.678H217.004V318.894H218.46V320.974C218.684 320.26 219.079 319.71 219.644 319.326C220.22 318.942 220.881 318.75 221.628 318.75ZM230.885 318.782C231.738 318.782 232.458 318.996 233.045 319.422C233.642 319.849 234.058 320.42 234.293 321.134V315.838H235.749V327.678H234.293V325.438C234.058 326.153 233.642 326.724 233.045 327.15C232.458 327.577 231.738 327.79 230.885 327.79C230.106 327.79 229.413 327.609 228.805 327.246C228.197 326.884 227.717 326.366 227.365 325.694C227.024 325.012 226.853 324.212 226.853 323.294C226.853 322.377 227.024 321.577 227.365 320.894C227.717 320.212 228.197 319.689 228.805 319.326C229.413 318.964 230.106 318.782 230.885 318.782ZM231.301 320.078C230.405 320.078 229.685 320.366 229.141 320.942C228.608 321.508 228.341 322.292 228.341 323.294C228.341 324.297 228.608 325.086 229.141 325.662C229.685 326.228 230.405 326.51 231.301 326.51C231.877 326.51 232.389 326.377 232.837 326.11C233.296 325.844 233.653 325.47 233.909 324.99C234.165 324.5 234.293 323.934 234.293 323.294C234.293 322.654 234.165 322.089 233.909 321.598C233.653 321.108 233.296 320.734 232.837 320.478C232.389 320.212 231.877 320.078 231.301 320.078ZM239.138 325.966V327.678H237.378V325.966H239.138Z" fill="black"/>
</svg>
